<svg width="780" height="350" viewBox="0 0 780 350" fill="none" xmlns="http://www.w3.org/2000/svg">
<path d="M759.508 253.191H705.948L698.962 286.702C691.51 321.144 691.51 338.83 716.66 338.83L715.263 344.415H609.075L610.472 338.83C635.622 338.83 643.073 321.144 650.525 286.702L657.511 253.191H533.159L528.502 237.367L752.522 0H759.973L713.865 215.957H747.398C761.371 215.957 766.959 215.027 774.411 207.58H780L759.508 253.191ZM693.373 84.7074L568.555 215.957H665.429L693.373 84.7074Z" fill="white"/>
<path d="M373.151 350C307.017 350 273.484 304.388 273.484 231.782C273.484 122.872 333.098 0 430.437 0C496.572 0 529.639 45.6117 529.639 118.218C529.639 227.128 470.49 350 373.151 350ZM371.754 337.434C440.683 337.434 483.065 185.239 483.065 94.9468C483.065 44.6808 467.696 12.5665 430.903 12.5665C361.974 12.5665 320.057 165.226 320.057 255.519C320.057 305.785 335.427 337.434 371.754 337.434Z" fill="white"/>
<path d="M231.005 253.191H177.446L170.46 286.702C163.008 321.144 163.008 338.83 188.158 338.83L186.76 344.415H80.5725L81.9697 338.83C107.119 338.83 114.571 321.144 122.023 286.702L129.009 253.191H4.65737L0 237.367L224.019 0H231.471L185.363 215.957H218.896C232.868 215.957 238.457 215.027 245.909 207.58H251.498L231.005 253.191ZM164.871 84.7074L40.0534 215.957H136.927L164.871 84.7074Z" fill="white"/>
</svg>
