<svg width="57" height="64" viewBox="0 0 57 64" fill="none" xmlns="http://www.w3.org/2000/svg">
<rect x="27.077" y="44.3077" width="2.46154" height="2.46154" fill="#7E7E7E"/>
<rect x="19.6924" y="46.7692" width="2.46154" height="2.46154" fill="#3E1E09"/>
<rect x="34.4615" y="46.7692" width="2.46154" height="2.46154" fill="#3E1E09"/>
<rect x="34.4615" y="44.3077" width="2.46154" height="2.46154" fill="#3E1E09"/>
<rect x="22.1539" y="46.7692" width="2.46154" height="2.46154" fill="#3E1E09"/>
<rect x="24.6155" y="46.7692" width="2.46154" height="2.46154" fill="#3E1E09"/>
<rect x="27.077" y="46.7692" width="2.46154" height="2.46154" fill="#3E1E09"/>
<rect x="32" y="46.7692" width="2.46154" height="2.46154" fill="#3E1E09"/>
<rect x="24.6155" y="51.6923" width="2.46154" height="2.46154" fill="#3E1E09"/>
<rect x="29.5385" y="51.6923" width="2.46154" height="2.46154" fill="#3E1E09"/>
<rect x="29.5385" y="46.7692" width="2.46154" height="2.46154" fill="#3E1E09"/>
<rect x="12.3077" y="54.1539" width="2.46154" height="2.46154" fill="#3E1E09"/>
<rect x="12.3077" y="51.6923" width="2.46154" height="2.46154" fill="#3E1E09"/>
<rect x="14.7693" y="49.2308" width="2.46154" height="2.46154" fill="#3E1E09"/>
<rect x="14.7693" y="46.7692" width="2.46154" height="2.46154" fill="#3E1E09"/>
<rect x="17.2308" y="46.7692" width="2.46154" height="2.46154" fill="#3E1E09"/>
<rect x="41.8462" y="54.1539" width="2.46154" height="2.46154" fill="#3E1E09"/>
<rect x="41.8462" y="51.6923" width="2.46154" height="2.46154" fill="#3E1E09"/>
<rect x="39.3846" y="49.2308" width="2.46154" height="2.46154" fill="#3E1E09"/>
<rect x="36.9231" y="46.7692" width="2.46154" height="2.46154" fill="#3E1E09"/>
<rect x="39.3846" y="46.7692" width="2.46154" height="2.46154" fill="#3E1E09"/>
<rect x="17.2308" y="49.2308" width="2.46154" height="2.46154" fill="#3E1E09"/>
<rect x="14.7693" y="51.6923" width="2.46154" height="2.46154" fill="#3E1E09"/>
<rect x="14.7693" y="54.1539" width="2.46154" height="2.46154" fill="#3E1E09"/>
<rect x="39.3846" y="54.1539" width="2.46154" height="2.46154" fill="#3E1E09"/>
<rect x="39.3846" y="51.6923" width="2.46154" height="2.46154" fill="#3E1E09"/>
<rect x="36.9231" y="49.2308" width="2.46154" height="2.46154" fill="#3E1E09"/>
<rect x="22.1539" y="49.2308" width="2.46154" height="2.46154" fill="#3E1E09"/>
<rect x="19.6924" y="44.3077" width="2.46154" height="2.46154" fill="#3E1E09"/>
<rect x="24.6155" y="49.2308" width="2.46154" height="2.46154" fill="#3E1E09"/>
<rect x="36.9231" y="56.6154" width="2.46154" height="2.46154" fill="#3E1E09"/>
<rect x="41.8462" y="56.6154" width="2.46154" height="2.46154" fill="#3E1E09"/>
<rect x="17.2308" y="56.6154" width="2.46154" height="2.46154" fill="#3E1E09"/>
<rect x="12.3077" y="56.6154" width="2.46154" height="2.46154" fill="#3E1E09"/>
<rect x="27.077" y="49.2308" width="2.46154" height="2.46154" fill="#3E1E09"/>
<rect x="29.5385" y="49.2308" width="2.46154" height="2.46154" fill="#3E1E09"/>
<rect x="32" y="49.2308" width="2.46154" height="2.46154" fill="#3E1E09"/>
<rect x="34.4615" y="54.1539" width="2.46154" height="2.46154" fill="#3E1E09"/>
<rect x="19.6924" y="54.1539" width="2.46154" height="2.46154" fill="#3E1E09"/>
<rect x="36.9231" y="54.1539" width="2.46154" height="2.46154" fill="#3E1E09"/>
<rect x="36.9231" y="51.6923" width="2.46154" height="2.46154" fill="#3E1E09"/>
<rect x="22.1539" y="51.6923" width="2.46154" height="2.46154" fill="#3E1E09"/>
<rect x="34.4615" y="51.6923" width="2.46154" height="2.46154" fill="#3E1E09"/>
<rect x="19.6924" y="51.6923" width="2.46154" height="2.46154" fill="#3E1E09"/>
<rect x="34.4615" y="49.2308" width="2.46154" height="2.46154" fill="#3E1E09"/>
<rect x="19.6924" y="49.2308" width="2.46154" height="2.46154" fill="#3E1E09"/>
<rect x="32" y="51.6923" width="2.46154" height="2.46154" fill="#3E1E09"/>
<rect x="17.2308" y="51.6923" width="2.46154" height="2.46154" fill="#3E1E09"/>
<rect x="17.2308" y="54.1539" width="2.46154" height="2.46154" fill="#3E1E09"/>
<rect x="39.3846" y="19.6923" width="2.46154" height="2.46154" fill="#FFFF00"/>
<rect x="29.5385" y="19.6923" width="2.46154" height="2.46154" fill="#FFFF00"/>
<rect x="27.077" y="17.2308" width="2.46154" height="2.46154" fill="#FFFF00"/>
<rect x="32" y="19.6923" width="2.46154" height="2.46154" fill="#FFFF00"/>
<rect x="29.5385" y="17.2308" width="2.46154" height="2.46154" fill="#FFFF00"/>
<rect x="27.077" y="19.6923" width="2.46154" height="2.46154" fill="#FFFF00"/>
<rect x="39.3846" y="17.2308" width="2.46154" height="2.46154" fill="#FFFF00"/>
<rect x="36.9231" y="19.6923" width="2.46154" height="2.46154" fill="#FFFF00"/>
<rect x="34.4615" y="29.5385" width="2.46154" height="2.46154" fill="black"/>
<rect x="32" y="29.5385" width="2.46154" height="2.46154" fill="black"/>
<rect x="29.5385" y="29.5385" width="2.46154" height="2.46154" fill="black"/>
<rect x="27.077" y="29.5385" width="2.46154" height="2.46154" fill="black"/>
<rect x="24.6155" y="44.3077" width="2.46154" height="2.46154" fill="black"/>
<rect x="29.5385" y="44.3077" width="2.46154" height="2.46154" fill="black"/>
<rect x="32" y="44.3077" width="2.46154" height="2.46154" fill="black"/>
<rect x="2.46155" y="56.6154" width="2.46154" height="2.46154" fill="black"/>
<rect x="2.46155" y="61.5385" width="2.46154" height="2.46154" fill="black"/>
<rect y="61.5385" width="2.46154" height="2.46154" fill="black"/>
<rect y="59.0769" width="2.46154" height="2.46154" fill="black"/>
<rect x="4.9231" y="61.5385" width="2.46154" height="2.46154" fill="black"/>
<rect x="7.38464" y="61.5385" width="2.46154" height="2.46154" fill="black"/>
<rect x="9.84619" y="61.5385" width="2.46154" height="2.46154" fill="black"/>
<rect x="12.3077" y="61.5385" width="2.46154" height="2.46154" fill="black"/>
<rect x="14.7693" y="61.5385" width="2.46154" height="2.46154" fill="black"/>
<rect x="17.2308" y="61.5385" width="2.46154" height="2.46154" fill="black"/>
<rect x="19.6924" y="61.5385" width="2.46154" height="2.46154" fill="black"/>
<rect x="22.1539" y="61.5385" width="2.46154" height="2.46154" fill="black"/>
<rect x="22.1539" y="59.0769" width="2.46154" height="2.46154" fill="black"/>
<rect x="32" y="59.0769" width="2.46154" height="2.46154" fill="black"/>
<rect x="22.1539" y="56.6154" width="2.46154" height="2.46154" fill="black"/>
<rect x="24.6155" y="54.1539" width="2.46154" height="2.46154" fill="black"/>
<rect x="27.077" y="51.6923" width="2.46154" height="2.46154" fill="black"/>
<rect x="29.5385" y="54.1539" width="2.46154" height="2.46154" fill="black"/>
<rect x="32" y="56.6154" width="2.46154" height="2.46154" fill="black"/>
<rect x="32" y="61.5385" width="2.46154" height="2.46154" fill="black"/>
<rect x="34.4615" y="61.5385" width="2.46154" height="2.46154" fill="black"/>
<rect x="36.9231" y="61.5385" width="2.46154" height="2.46154" fill="black"/>
<rect x="39.3846" y="61.5385" width="2.46154" height="2.46154" fill="black"/>
<rect x="41.8462" y="61.5385" width="2.46154" height="2.46154" fill="black"/>
<rect x="44.3077" y="61.5385" width="2.46154" height="2.46154" fill="black"/>
<rect x="46.7693" y="61.5385" width="2.46154" height="2.46154" fill="black"/>
<rect x="49.2308" y="61.5385" width="2.46154" height="2.46154" fill="black"/>
<rect x="51.6924" y="61.5385" width="2.46154" height="2.46154" fill="black"/>
<rect x="14.7693" y="22.1539" width="2.46154" height="2.46154" fill="black"/>
<rect x="12.3077" y="19.6923" width="2.46154" height="2.46154" fill="black"/>
<rect x="12.3077" y="17.2308" width="2.46154" height="2.46154" fill="black"/>
<rect x="12.3077" y="14.7692" width="2.46154" height="2.46154" fill="black"/>
<rect x="12.3077" y="12.3077" width="2.46154" height="2.46154" fill="black"/>
<rect x="12.3077" y="9.84613" width="2.46154" height="2.46154" fill="black"/>
<rect x="12.3077" y="7.38464" width="2.46154" height="2.46154" fill="black"/>
<rect x="14.7693" y="4.9231" width="2.46154" height="2.46154" fill="black"/>
<rect x="17.2308" y="2.46155" width="2.46154" height="2.46154" fill="black"/>
<rect x="19.6924" width="2.46154" height="2.46154" fill="black"/>
<rect x="22.1539" width="2.46154" height="2.46154" fill="black"/>
<rect x="36.9231" y="2.46155" width="2.46154" height="2.46154" fill="black"/>
<rect x="39.3846" y="4.9231" width="2.46154" height="2.46154" fill="black"/>
<rect x="41.8462" y="7.38464" width="2.46154" height="2.46154" fill="black"/>
<rect x="41.8462" y="9.84613" width="2.46154" height="2.46154" fill="black"/>
<rect x="27.077" width="2.46154" height="2.46154" fill="black"/>
<rect x="24.6155" width="2.46154" height="2.46154" fill="black"/>
<rect x="29.5385" width="2.46154" height="2.46154" fill="black"/>
<rect x="32" width="2.46154" height="2.46154" fill="black"/>
<rect x="34.4615" width="2.46154" height="2.46154" fill="black"/>
<rect x="41.8462" y="12.3077" width="2.46154" height="2.46154" fill="black"/>
<rect x="41.8462" y="14.7692" width="2.46154" height="2.46154" fill="black"/>
<rect x="41.8462" y="17.2308" width="2.46154" height="2.46154" fill="black"/>
<rect x="41.8462" y="19.6923" width="2.46154" height="2.46154" fill="black"/>
<rect x="41.8462" y="22.1539" width="2.46154" height="2.46154" fill="black"/>
<rect x="46.7693" y="46.7692" width="2.46154" height="2.46154" fill="black"/>
<rect x="49.2308" y="46.7692" width="2.46154" height="2.46154" fill="black"/>
<rect x="51.6924" y="46.7692" width="2.46154" height="2.46154" fill="black"/>
<rect x="54.1539" y="44.3077" width="2.46154" height="2.46154" fill="black"/>
<rect x="54.1539" y="41.8461" width="2.46154" height="2.46154" fill="black"/>
<rect x="54.1539" y="39.3846" width="2.46154" height="2.46154" fill="black"/>
<rect x="54.1539" y="36.9231" width="2.46154" height="2.46154" fill="black"/>
<rect x="54.1539" y="34.4615" width="2.46154" height="2.46154" fill="black"/>
<rect x="49.2308" y="27.0769" width="2.46154" height="2.46154" fill="black"/>
<rect x="44.3077" y="22.1539" width="2.46154" height="2.46154" fill="black"/>
<rect x="46.7693" y="24.6154" width="2.46154" height="2.46154" fill="black"/>
<rect x="51.6924" y="29.5385" width="2.46154" height="2.46154" fill="black"/>
<rect x="54.1539" y="32" width="2.46154" height="2.46154" fill="black"/>
<rect x="41.8462" y="46.7692" width="2.46154" height="2.46154" fill="black"/>
<rect x="39.3846" y="44.3077" width="2.46154" height="2.46154" fill="black"/>
<rect x="39.3846" y="41.8461" width="2.46154" height="2.46154" fill="black"/>
<rect x="7.38464" y="46.7692" width="2.46154" height="2.46154" fill="black"/>
<rect x="4.9231" y="46.7692" width="2.46154" height="2.46154" fill="black"/>
<rect x="2.46155" y="46.7692" width="2.46154" height="2.46154" fill="black"/>
<rect y="44.3077" width="2.46154" height="2.46154" fill="black"/>
<rect y="41.8461" width="2.46154" height="2.46154" fill="black"/>
<rect y="39.3846" width="2.46154" height="2.46154" fill="black"/>
<rect y="36.9231" width="2.46154" height="2.46154" fill="black"/>
<rect y="34.4615" width="2.46154" height="2.46154" fill="black"/>
<rect x="12.3077" y="46.7692" width="2.46154" height="2.46154" fill="black"/>
<rect x="14.7693" y="44.3077" width="2.46154" height="2.46154" fill="black"/>
<rect x="14.7693" y="41.8461" width="2.46154" height="2.46154" fill="black"/>
<rect x="14.7693" y="39.3846" width="2.46154" height="2.46154" fill="black"/>
<rect x="7.38464" y="54.1539" width="2.46154" height="2.46154" fill="black"/>
<rect x="9.84619" y="54.1539" width="2.46154" height="2.46154" fill="black"/>
<rect x="9.84619" y="51.6923" width="2.46154" height="2.46154" fill="black"/>
<rect x="12.3077" y="49.2308" width="2.46154" height="2.46154" fill="black"/>
<rect x="17.2308" y="44.3077" width="2.46154" height="2.46154" fill="black"/>
<rect x="4.9231" y="56.6154" width="2.46154" height="2.46154" fill="black"/>
<rect x="49.2308" y="56.6154" width="2.46154" height="2.46154" fill="black"/>
<rect x="51.6924" y="56.6154" width="2.46154" height="2.46154" fill="black"/>
<rect x="44.3077" y="51.6923" width="2.46154" height="2.46154" fill="black"/>
<rect x="41.8462" y="49.2308" width="2.46154" height="2.46154" fill="black"/>
<rect x="36.9231" y="44.3077" width="2.46154" height="2.46154" fill="black"/>
<rect x="44.3077" y="54.1539" width="2.46154" height="2.46154" fill="black"/>
<rect x="46.7693" y="54.1539" width="2.46154" height="2.46154" fill="black"/>
<rect x="41.8462" y="39.3846" width="2.46154" height="2.46154" fill="black"/>
<rect x="39.3846" y="39.3846" width="2.46154" height="2.46154" fill="black"/>
<rect x="17.2308" y="24.6154" width="2.46154" height="2.46154" fill="black"/>
<rect x="12.3077" y="39.3846" width="2.46154" height="2.46154" fill="black"/>
<rect y="32" width="2.46154" height="2.46154" fill="black"/>
<rect x="2.46155" y="29.5385" width="2.46154" height="2.46154" fill="black"/>
<rect x="4.9231" y="27.0769" width="2.46154" height="2.46154" fill="black"/>
<rect x="7.38464" y="24.6154" width="2.46154" height="2.46154" fill="black"/>
<rect x="9.84619" y="22.1539" width="2.46154" height="2.46154" fill="black"/>
<rect x="54.1539" y="61.5385" width="2.46154" height="2.46154" fill="black"/>
<rect x="54.1539" y="59.0769" width="2.46154" height="2.46154" fill="black"/>
<rect x="22.1539" y="44.3077" width="2.46154" height="2.46154" fill="black"/>
<rect x="44.3077" y="36.9231" width="2.46154" height="2.46154" fill="black"/>
<rect x="9.84619" y="36.9231" width="2.46154" height="2.46154" fill="black"/>
<rect x="12.3077" y="36.9231" width="2.46154" height="2.46154" fill="black"/>
<rect x="12.3077" y="34.4615" width="2.46154" height="2.46154" fill="black"/>
<rect x="14.7693" y="36.9231" width="2.46154" height="2.46154" fill="black"/>
<rect x="14.7693" y="34.4615" width="2.46154" height="2.46154" fill="black"/>
<rect x="14.7693" y="32" width="2.46154" height="2.46154" fill="black"/>
<rect x="41.8462" y="34.4615" width="2.46154" height="2.46154" fill="black"/>
<rect x="39.3846" y="34.4615" width="2.46154" height="2.46154" fill="black"/>
<rect x="39.3846" y="32" width="2.46154" height="2.46154" fill="black"/>
<rect x="41.8462" y="36.9231" width="2.46154" height="2.46154" fill="black"/>
<rect x="39.3846" y="36.9231" width="2.46154" height="2.46154" fill="black"/>
<rect x="36.9231" y="27.0769" width="2.46154" height="2.46154" fill="black"/>
<rect x="24.6155" y="29.5385" width="2.46154" height="2.46154" fill="black"/>
<rect x="22.1539" y="29.5385" width="2.46154" height="2.46154" fill="black"/>
<rect x="19.6924" y="27.0769" width="2.46154" height="2.46154" fill="black"/>
<rect x="24.6155" y="17.2308" width="2.46154" height="2.46154" fill="black"/>
<rect x="27.077" y="14.7692" width="2.46154" height="2.46154" fill="black"/>
<rect x="29.5385" y="14.7692" width="2.46154" height="2.46154" fill="black"/>
<rect x="32" y="17.2308" width="2.46154" height="2.46154" fill="black"/>
<rect x="39.3846" y="14.7692" width="2.46154" height="2.46154" fill="black"/>
<rect x="36.9231" y="17.2308" width="2.46154" height="2.46154" fill="black"/>
<rect x="34.4615" y="19.6923" width="2.46154" height="2.46154" fill="black"/>
<rect x="24.6155" y="19.6923" width="2.46154" height="2.46154" fill="black"/>
<rect x="39.3846" y="24.6154" width="2.46154" height="2.46154" fill="black"/>
<rect x="41.8462" y="41.8461" width="2.46154" height="2.46154" fill="black"/>
<rect x="44.3077" y="44.3077" width="2.46154" height="2.46154" fill="black"/>
<rect x="12.3077" y="41.8461" width="2.46154" height="2.46154" fill="black"/>
<rect x="9.84619" y="44.3077" width="2.46154" height="2.46154" fill="black"/>
<rect x="49.2308" y="36.9231" width="2.46154" height="2.46154" fill="white"/>
<rect x="49.2308" y="39.3846" width="2.46154" height="2.46154" fill="white"/>
<rect x="49.2308" y="41.8461" width="2.46154" height="2.46154" fill="white"/>
<rect x="51.6924" y="41.8461" width="2.46154" height="2.46154" fill="white"/>
<rect x="51.6924" y="39.3846" width="2.46154" height="2.46154" fill="white"/>
<rect x="51.6924" y="36.9231" width="2.46154" height="2.46154" fill="white"/>
<rect x="4.9231" y="36.9231" width="2.46154" height="2.46154" fill="white"/>
<rect x="4.9231" y="39.3846" width="2.46154" height="2.46154" fill="white"/>
<rect x="4.9231" y="41.8461" width="2.46154" height="2.46154" fill="white"/>
<rect x="2.46155" y="41.8461" width="2.46154" height="2.46154" fill="white"/>
<rect x="2.46155" y="39.3846" width="2.46154" height="2.46154" fill="white"/>
<rect x="2.46155" y="36.9231" width="2.46154" height="2.46154" fill="white"/>
<rect x="32" y="24.6154" width="2.46154" height="2.46154" fill="white"/>
<rect x="29.5385" y="24.6154" width="2.46154" height="2.46154" fill="white"/>
<rect x="44.3077" y="39.3846" width="2.46154" height="2.46154" fill="white"/>
<rect x="46.7693" y="39.3846" width="2.46154" height="2.46154" fill="white"/>
<rect x="46.7693" y="36.9231" width="2.46154" height="2.46154" fill="white"/>
<rect x="7.38464" y="39.3846" width="2.46154" height="2.46154" fill="white"/>
<rect x="7.38464" y="36.9231" width="2.46154" height="2.46154" fill="white"/>
<rect x="9.84619" y="39.3846" width="2.46154" height="2.46154" fill="white"/>
<rect x="27.077" y="24.6154" width="2.46154" height="2.46154" fill="white"/>
<rect x="34.4615" y="24.6154" width="2.46154" height="2.46154" fill="white"/>
<rect x="24.6155" y="24.6154" width="2.46154" height="2.46154" fill="white"/>
<rect x="46.7693" y="41.8461" width="2.46154" height="2.46154" fill="white"/>
<rect x="7.38464" y="41.8461" width="2.46154" height="2.46154" fill="white"/>
<rect x="27.077" y="41.8461" width="2.46154" height="2.46154" fill="#00BF00"/>
<rect x="32" y="41.8461" width="2.46154" height="2.46154" fill="#00BF00"/>
<rect x="29.5385" y="39.3846" width="2.46154" height="2.46154" fill="#00BF00"/>
<rect x="27.077" y="39.3846" width="2.46154" height="2.46154" fill="#00BF00"/>
<rect x="32" y="39.3846" width="2.46154" height="2.46154" fill="#00BF00"/>
<rect x="4.9231" y="59.0769" width="2.46154" height="2.46154" fill="#00BF00"/>
<rect x="2.46155" y="59.0769" width="2.46154" height="2.46154" fill="#00BF00"/>
<rect x="22.1539" y="54.1539" width="2.46154" height="2.46154" fill="#00BF00"/>
<rect x="32" y="54.1539" width="2.46154" height="2.46154" fill="#00BF00"/>
<rect x="49.2308" y="59.0769" width="2.46154" height="2.46154" fill="#00BF00"/>
<rect x="29.5385" y="41.8461" width="2.46154" height="2.46154" fill="#00BF00"/>
<rect x="17.2308" y="39.3846" width="2.46154" height="2.46154" fill="#00BF00"/>
<rect x="17.2308" y="41.8461" width="2.46154" height="2.46154" fill="#00BF00"/>
<rect x="7.38464" y="56.6154" width="2.46154" height="2.46154" fill="#00BF00"/>
<rect x="46.7693" y="56.6154" width="2.46154" height="2.46154" fill="#00BF00"/>
<rect x="36.9231" y="41.8461" width="2.46154" height="2.46154" fill="#00BF00"/>
<rect x="36.9231" y="39.3846" width="2.46154" height="2.46154" fill="#00BF00"/>
<rect x="36.9231" y="32" width="2.46154" height="2.46154" fill="#00BF00"/>
<rect x="24.6155" y="27.0769" width="2.46154" height="2.46154" fill="#00BF00"/>
<rect x="36.9231" y="22.1539" width="2.46154" height="2.46154" fill="#00BF00"/>
<rect x="41.8462" y="24.6154" width="2.46154" height="2.46154" fill="#00BF00"/>
<rect x="41.8462" y="27.0769" width="2.46154" height="2.46154" fill="#00BF00"/>
<rect x="41.8462" y="29.5385" width="2.46154" height="2.46154" fill="#00BF00"/>
<rect x="44.3077" y="32" width="2.46154" height="2.46154" fill="#00BF00"/>
<rect x="46.7693" y="34.4615" width="2.46154" height="2.46154" fill="#00BF00"/>
<rect x="51.6924" y="34.4615" width="2.46154" height="2.46154" fill="#00BF00"/>
<rect x="49.2308" y="34.4615" width="2.46154" height="2.46154" fill="#00BF00"/>
<rect x="49.2308" y="32" width="2.46154" height="2.46154" fill="#00BF00"/>
<rect x="46.7693" y="32" width="2.46154" height="2.46154" fill="#00BF00"/>
<rect x="44.3077" y="29.5385" width="2.46154" height="2.46154" fill="#00BF00"/>
<rect x="46.7693" y="29.5385" width="2.46154" height="2.46154" fill="#00BF00"/>
<rect x="44.3077" y="27.0769" width="2.46154" height="2.46154" fill="#00BF00"/>
<rect x="4.9231" y="34.4615" width="2.46154" height="2.46154" fill="#00BF00"/>
<rect x="2.46155" y="34.4615" width="2.46154" height="2.46154" fill="#00BF00"/>
<rect x="39.3846" y="29.5385" width="2.46154" height="2.46154" fill="#00BF00"/>
<rect x="19.6924" y="29.5385" width="2.46154" height="2.46154" fill="#00BF00"/>
<rect x="17.2308" y="29.5385" width="2.46154" height="2.46154" fill="#00BF00"/>
<rect x="17.2308" y="27.0769" width="2.46154" height="2.46154" fill="#00BF00"/>
<rect x="14.7693" y="29.5385" width="2.46154" height="2.46154" fill="#00BF00"/>
<rect x="12.3077" y="29.5385" width="2.46154" height="2.46154" fill="#00BF00"/>
<rect x="7.38464" y="34.4615" width="2.46154" height="2.46154" fill="#00BF00"/>
<rect x="4.9231" y="32" width="2.46154" height="2.46154" fill="#00BF00"/>
<rect x="7.38464" y="32" width="2.46154" height="2.46154" fill="#00BF00"/>
<rect x="7.38464" y="29.5385" width="2.46154" height="2.46154" fill="#00BF00"/>
<rect x="9.84619" y="29.5385" width="2.46154" height="2.46154" fill="#00BF00"/>
<rect x="14.7693" y="27.0769" width="2.46154" height="2.46154" fill="#00BF00"/>
<rect x="12.3077" y="27.0769" width="2.46154" height="2.46154" fill="#00BF00"/>
<rect x="9.84619" y="27.0769" width="2.46154" height="2.46154" fill="#00BF00"/>
<rect x="14.7693" y="24.6154" width="2.46154" height="2.46154" fill="#00BF00"/>
<rect x="12.3077" y="24.6154" width="2.46154" height="2.46154" fill="#00BF00"/>
<rect x="9.84619" y="32" width="2.46154" height="2.46154" fill="#00BF00"/>
<rect x="29.5385" y="22.1539" width="2.46154" height="2.46154" fill="#00BF00"/>
<rect x="32" y="22.1539" width="2.46154" height="2.46154" fill="#00BF00"/>
<rect x="36.9231" y="24.6154" width="2.46154" height="2.46154" fill="#00BF00"/>
<rect x="9.84619" y="34.4615" width="2.46154" height="2.46154" fill="#00BF00"/>
<rect x="12.3077" y="32" width="2.46154" height="2.46154" fill="#00BF00"/>
<rect x="41.8462" y="32" width="2.46154" height="2.46154" fill="#00BF00"/>
<rect x="44.3077" y="34.4615" width="2.46154" height="2.46154" fill="#00BF00"/>
<rect x="32" y="27.0769" width="2.46154" height="2.46154" fill="#00BF00"/>
<rect x="29.5385" y="27.0769" width="2.46154" height="2.46154" fill="#00BF00"/>
<rect x="27.077" y="22.1539" width="2.46154" height="2.46154" fill="#00BF00"/>
<rect x="34.4615" y="27.0769" width="2.46154" height="2.46154" fill="#00BF00"/>
<rect x="34.4615" y="22.1539" width="2.46154" height="2.46154" fill="#00BF00"/>
<rect x="36.9231" y="29.5385" width="2.46154" height="2.46154" fill="#00BF00"/>
<rect x="39.3846" y="27.0769" width="2.46154" height="2.46154" fill="#00BF00"/>
<rect x="27.077" y="27.0769" width="2.46154" height="2.46154" fill="#00BF00"/>
<rect x="22.1539" y="27.0769" width="2.46154" height="2.46154" fill="#00BF00"/>
<rect x="22.1539" y="24.6154" width="2.46154" height="2.46154" fill="#00BF00"/>
<rect x="24.6155" y="22.1539" width="2.46154" height="2.46154" fill="#00BF00"/>
<rect x="22.1539" y="22.1539" width="2.46154" height="2.46154" fill="#00BF00"/>
<rect x="19.6924" y="22.1539" width="2.46154" height="2.46154" fill="#00BF00"/>
<rect x="14.7693" y="12.3077" width="2.46154" height="2.46154" fill="#00BF00"/>
<rect x="14.7693" y="9.84613" width="2.46154" height="2.46154" fill="#00BF00"/>
<rect x="14.7693" y="7.38464" width="2.46154" height="2.46154" fill="#00BF00"/>
<rect x="17.2308" y="7.38464" width="2.46154" height="2.46154" fill="#00BF00"/>
<rect x="17.2308" y="9.84613" width="2.46154" height="2.46154" fill="#00BF00"/>
<rect x="14.7693" y="17.2308" width="2.46154" height="2.46154" fill="#00BF00"/>
<rect x="14.7693" y="14.7692" width="2.46154" height="2.46154" fill="#00BF00"/>
<rect x="17.2308" y="12.3077" width="2.46154" height="2.46154" fill="#00BF00"/>
<rect x="19.6924" y="9.84613" width="2.46154" height="2.46154" fill="#00BF00"/>
<rect x="22.1539" y="7.38464" width="2.46154" height="2.46154" fill="#00BF00"/>
<rect x="19.6924" y="4.9231" width="2.46154" height="2.46154" fill="#00BF00"/>
<rect x="22.1539" y="2.46155" width="2.46154" height="2.46154" fill="#00BF00"/>
<rect x="24.6155" y="4.9231" width="2.46154" height="2.46154" fill="#00BF00"/>
<rect x="29.5385" y="4.9231" width="2.46154" height="2.46154" fill="#00BF00"/>
<rect x="34.4615" y="4.9231" width="2.46154" height="2.46154" fill="#00BF00"/>
<rect x="27.077" y="2.46155" width="2.46154" height="2.46154" fill="#00BF00"/>
<rect x="32" y="2.46155" width="2.46154" height="2.46154" fill="#00BF00"/>
<rect x="36.9231" y="7.38464" width="2.46154" height="2.46154" fill="#00BF00"/>
<rect x="39.3846" y="9.84613" width="2.46154" height="2.46154" fill="#00BF00"/>
<rect x="17.2308" y="19.6923" width="2.46154" height="2.46154" fill="#00BF00"/>
<rect x="17.2308" y="14.7692" width="2.46154" height="2.46154" fill="#00BF00"/>
<rect x="17.2308" y="17.2308" width="2.46154" height="2.46154" fill="#00BF00"/>
<rect x="19.6924" y="19.6923" width="2.46154" height="2.46154" fill="#00BF00"/>
<rect x="19.6924" y="14.7692" width="2.46154" height="2.46154" fill="#00BF00"/>
<rect x="19.6924" y="12.3077" width="2.46154" height="2.46154" fill="#00BF00"/>
<rect x="22.1539" y="12.3077" width="2.46154" height="2.46154" fill="#00BF00"/>
<rect x="24.6155" y="9.84613" width="2.46154" height="2.46154" fill="#00BF00"/>
<rect x="27.077" y="7.38464" width="2.46154" height="2.46154" fill="#00BF00"/>
<rect x="29.5385" y="9.84613" width="2.46154" height="2.46154" fill="#00BF00"/>
<rect x="32" y="12.3077" width="2.46154" height="2.46154" fill="#00BF00"/>
<rect x="32" y="7.38464" width="2.46154" height="2.46154" fill="#00BF00"/>
<rect x="34.4615" y="9.84613" width="2.46154" height="2.46154" fill="#00BF00"/>
<rect x="36.9231" y="12.3077" width="2.46154" height="2.46154" fill="#00BF00"/>
<rect x="34.4615" y="14.7692" width="2.46154" height="2.46154" fill="#00BF00"/>
<rect x="19.6924" y="17.2308" width="2.46154" height="2.46154" fill="#00BF00"/>
<rect x="39.3846" y="22.1539" width="2.46154" height="2.46154" fill="#00BF00"/>
<rect x="34.4615" y="34.4615" width="2.46154" height="2.46154" fill="#00BF00"/>
<rect x="32" y="34.4615" width="2.46154" height="2.46154" fill="#00BF00"/>
<rect x="29.5385" y="34.4615" width="2.46154" height="2.46154" fill="#00BF00"/>
<rect x="24.6155" y="34.4615" width="2.46154" height="2.46154" fill="#00BF00"/>
<rect x="22.1539" y="32" width="2.46154" height="2.46154" fill="#00BF00"/>
<rect x="51.6924" y="59.0769" width="2.46154" height="2.46154" fill="#00BF00"/>
<rect x="19.6924" y="59.0769" width="2.46154" height="2.46154" fill="#00BF00"/>
<rect x="34.4615" y="59.0769" width="2.46154" height="2.46154" fill="#00BF00"/>
<rect x="36.9231" y="59.0769" width="2.46154" height="2.46154" fill="#00BF00"/>
<rect x="39.3846" y="59.0769" width="2.46154" height="2.46154" fill="#00BF00"/>
<rect x="41.8462" y="59.0769" width="2.46154" height="2.46154" fill="#00BF00"/>
<rect x="44.3077" y="59.0769" width="2.46154" height="2.46154" fill="#00BF00"/>
<rect x="46.7693" y="59.0769" width="2.46154" height="2.46154" fill="#00BF00"/>
<rect x="17.2308" y="59.0769" width="2.46154" height="2.46154" fill="#00BF00"/>
<rect x="14.7693" y="59.0769" width="2.46154" height="2.46154" fill="#00BF00"/>
<rect x="12.3077" y="59.0769" width="2.46154" height="2.46154" fill="#00BF00"/>
<rect x="9.84619" y="59.0769" width="2.46154" height="2.46154" fill="#00BF00"/>
<rect x="7.38464" y="59.0769" width="2.46154" height="2.46154" fill="#00BF00"/>
<rect x="9.84619" y="56.6154" width="2.46154" height="2.46154" fill="#00BF00"/>
<rect x="44.3077" y="56.6154" width="2.46154" height="2.46154" fill="#00BF00"/>
<rect x="19.6924" y="39.3846" width="2.46154" height="2.46154" fill="#00BF00"/>
<rect x="19.6924" y="41.8461" width="2.46154" height="2.46154" fill="#00BF00"/>
<rect x="22.1539" y="41.8461" width="2.46154" height="2.46154" fill="#00BF00"/>
<rect x="24.6155" y="41.8461" width="2.46154" height="2.46154" fill="#00BF00"/>
<rect x="34.4615" y="41.8461" width="2.46154" height="2.46154" fill="#00BF00"/>
<rect x="24.6155" y="39.3846" width="2.46154" height="2.46154" fill="#00BF00"/>
<rect x="34.4615" y="39.3846" width="2.46154" height="2.46154" fill="#00BF00"/>
<rect x="17.2308" y="32" width="2.46154" height="2.46154" fill="#00BF00"/>
<rect x="19.6924" y="32" width="2.46154" height="2.46154" fill="#00BF00"/>
<rect x="19.6924" y="34.4615" width="2.46154" height="2.46154" fill="#00BF00"/>
<rect x="17.2308" y="34.4615" width="2.46154" height="2.46154" fill="#00BF00"/>
<rect x="36.9231" y="34.4615" width="2.46154" height="2.46154" fill="#00BF00"/>
<rect x="19.6924" y="56.6154" width="2.46154" height="2.46154" fill="#00BF00"/>
<rect x="34.4615" y="56.6154" width="2.46154" height="2.46154" fill="#00BF00"/>
<rect x="39.3846" y="56.6154" width="2.46154" height="2.46154" fill="#00BF00"/>
<rect x="14.7693" y="56.6154" width="2.46154" height="2.46154" fill="#00BF00"/>
<rect x="34.4615" y="32" width="2.46154" height="2.46154" fill="#00BF00"/>
<rect x="32" y="32" width="2.46154" height="2.46154" fill="#00BF00"/>
<rect x="29.5385" y="32" width="2.46154" height="2.46154" fill="#00BF00"/>
<rect x="24.6155" y="32" width="2.46154" height="2.46154" fill="#00BF00"/>
<rect x="22.1539" y="34.4615" width="2.46154" height="2.46154" fill="#00BF00"/>
<rect x="22.1539" y="39.3846" width="2.46154" height="2.46154" fill="#00BF00"/>
<rect x="27.077" y="36.9231" width="2.46154" height="2.46154" fill="#00BF00"/>
<rect x="22.1539" y="36.9231" width="2.46154" height="2.46154" fill="#008000"/>
<rect x="14.7693" y="19.6923" width="2.46154" height="2.46154" fill="#008000"/>
<rect x="19.6924" y="7.38464" width="2.46154" height="2.46154" fill="#008000"/>
<rect x="17.2308" y="4.9231" width="2.46154" height="2.46154" fill="#008000"/>
<rect x="22.1539" y="4.9231" width="2.46154" height="2.46154" fill="#008000"/>
<rect x="19.6924" y="2.46155" width="2.46154" height="2.46154" fill="#008000"/>
<rect x="27.077" y="4.9231" width="2.46154" height="2.46154" fill="#008000"/>
<rect x="32" y="4.9231" width="2.46154" height="2.46154" fill="#008000"/>
<rect x="24.6155" y="2.46155" width="2.46154" height="2.46154" fill="#008000"/>
<rect x="29.5385" y="2.46155" width="2.46154" height="2.46154" fill="#008000"/>
<rect x="34.4615" y="2.46155" width="2.46154" height="2.46154" fill="#008000"/>
<rect x="36.9231" y="4.9231" width="2.46154" height="2.46154" fill="#008000"/>
<rect x="39.3846" y="7.38464" width="2.46154" height="2.46154" fill="#008000"/>
<rect x="49.2308" y="44.3077" width="2.46154" height="2.46154" fill="#008000"/>
<rect x="51.6924" y="44.3077" width="2.46154" height="2.46154" fill="#008000"/>
<rect x="51.6924" y="32" width="2.46154" height="2.46154" fill="#008000"/>
<rect x="49.2308" y="29.5385" width="2.46154" height="2.46154" fill="#008000"/>
<rect x="46.7693" y="27.0769" width="2.46154" height="2.46154" fill="#008000"/>
<rect x="44.3077" y="24.6154" width="2.46154" height="2.46154" fill="#008000"/>
<rect x="4.9231" y="44.3077" width="2.46154" height="2.46154" fill="#008000"/>
<rect x="2.46155" y="44.3077" width="2.46154" height="2.46154" fill="#008000"/>
<rect x="17.2308" y="36.9231" width="2.46154" height="2.46154" fill="#008000"/>
<rect x="36.9231" y="36.9231" width="2.46154" height="2.46154" fill="#008000"/>
<rect x="29.5385" y="36.9231" width="2.46154" height="2.46154" fill="#008000"/>
<rect x="27.077" y="34.4615" width="2.46154" height="2.46154" fill="#008000"/>
<rect x="2.46155" y="32" width="2.46154" height="2.46154" fill="#008000"/>
<rect x="4.9231" y="29.5385" width="2.46154" height="2.46154" fill="#008000"/>
<rect x="7.38464" y="27.0769" width="2.46154" height="2.46154" fill="#008000"/>
<rect x="9.84619" y="24.6154" width="2.46154" height="2.46154" fill="#008000"/>
<rect x="12.3077" y="22.1539" width="2.46154" height="2.46154" fill="#008000"/>
<rect x="34.4615" y="36.9231" width="2.46154" height="2.46154" fill="#008000"/>
<rect x="27.077" y="32" width="2.46154" height="2.46154" fill="#008000"/>
<rect x="22.1539" y="19.6923" width="2.46154" height="2.46154" fill="#008000"/>
<rect x="24.6155" y="36.9231" width="2.46154" height="2.46154" fill="#008000"/>
<rect x="19.6924" y="36.9231" width="2.46154" height="2.46154" fill="#008000"/>
<rect x="29.5385" y="12.3077" width="2.46154" height="2.46154" fill="#008000"/>
<rect x="39.3846" y="12.3077" width="2.46154" height="2.46154" fill="#008000"/>
<rect x="36.9231" y="14.7692" width="2.46154" height="2.46154" fill="#008000"/>
<rect x="34.4615" y="17.2308" width="2.46154" height="2.46154" fill="#008000"/>
<rect x="19.6924" y="24.6154" width="2.46154" height="2.46154" fill="#008000"/>
<rect x="17.2308" y="22.1539" width="2.46154" height="2.46154" fill="#008000"/>
<rect x="32" y="14.7692" width="2.46154" height="2.46154" fill="#008000"/>
<rect x="27.077" y="12.3077" width="2.46154" height="2.46154" fill="#008000"/>
<rect x="24.6155" y="14.7692" width="2.46154" height="2.46154" fill="#008000"/>
<rect x="22.1539" y="17.2308" width="2.46154" height="2.46154" fill="#008000"/>
<rect x="44.3077" y="41.8461" width="2.46154" height="2.46154" fill="#008000"/>
<rect x="46.7693" y="44.3077" width="2.46154" height="2.46154" fill="#008000"/>
<rect x="9.84619" y="41.8461" width="2.46154" height="2.46154" fill="#008000"/>
<rect x="7.38464" y="44.3077" width="2.46154" height="2.46154" fill="#008000"/>
<rect x="24.6155" y="7.38464" width="2.46154" height="2.46154" fill="#008000"/>
<rect x="22.1539" y="9.84613" width="2.46154" height="2.46154" fill="#008000"/>
<rect x="27.077" y="9.84613" width="2.46154" height="2.46154" fill="#008000"/>
<rect x="29.5385" y="7.38464" width="2.46154" height="2.46154" fill="#008000"/>
<rect x="32" y="9.84613" width="2.46154" height="2.46154" fill="#008000"/>
<rect x="34.4615" y="7.38464" width="2.46154" height="2.46154" fill="#008000"/>
<rect x="36.9231" y="9.84613" width="2.46154" height="2.46154" fill="#008000"/>
<rect x="34.4615" y="12.3077" width="2.46154" height="2.46154" fill="#008000"/>
<rect x="32" y="36.9231" width="2.46154" height="2.46154" fill="#008000"/>
<rect x="24.6155" y="12.3077" width="2.46154" height="2.46154" fill="#008000"/>
<rect x="22.1539" y="14.7692" width="2.46154" height="2.46154" fill="#008000"/>
</svg>
