<svg width="31" height="40" viewBox="0 0 31 40" fill="none" xmlns="http://www.w3.org/2000/svg">
<rect x="19.2" y="17.6" width="1.6" height="1.6" fill="#FF0000"/>
<rect x="17.6" y="17.6" width="1.6" height="1.6" fill="#FF0000"/>
<rect x="16.0001" y="17.6" width="1.6" height="1.6" fill="#FF0000"/>
<rect x="14.4" y="17.6" width="1.6" height="1.6" fill="white"/>
<rect x="11.2" y="22.4" width="1.6" height="1.6" fill="#D9D9D9"/>
<rect x="12.8" y="16" width="1.6" height="1.6" fill="white"/>
<rect x="9.60004" y="28.8" width="1.6" height="1.6" fill="#FF0000"/>
<rect x="19.2" y="28.8" width="1.6" height="1.6" fill="black"/>
<rect x="19.2" y="27.2" width="1.6" height="1.6" fill="black"/>
<rect x="11.2" y="28.8" width="1.6" height="1.6" fill="black"/>
<rect x="12.8" y="27.2" width="1.6" height="1.6" fill="#FF0000"/>
<rect x="12.8" y="28.8" width="1.6" height="1.6" fill="#FF0000"/>
<rect x="14.4" y="25.6" width="1.6" height="1.6" fill="#FF0000"/>
<rect x="14.4" y="27.2" width="1.6" height="1.6" fill="black"/>
<rect x="14.4" y="28.8" width="1.6" height="1.6" fill="black"/>
<rect x="16.0001" y="27.2" width="1.6" height="1.6" fill="black"/>
<rect x="17.6" y="25.6" width="1.6" height="1.6" fill="#FF0000"/>
<rect x="17.6" y="27.2" width="1.6" height="1.6" fill="black"/>
<rect x="17.6" y="28.8" width="1.6" height="1.6" fill="black"/>
<rect x="16.0001" y="24" width="1.6" height="1.6" fill="#FF0000"/>
<rect x="14.4" y="24" width="1.6" height="1.6" fill="#FF0000"/>
<rect x="17.6" y="24" width="1.6" height="1.6" fill="#FF0000"/>
<rect y="36.8" width="1.6" height="1.6" fill="black"/>
<rect y="38.4" width="1.6" height="1.6" fill="black"/>
<rect x="1.60004" y="38.4" width="1.6" height="1.6" fill="black"/>
<rect x="3.20001" y="38.4" width="1.6" height="1.6" fill="black"/>
<rect x="4.79999" y="38.4" width="1.6" height="1.6" fill="black"/>
<rect x="6.40002" y="38.4" width="1.6" height="1.6" fill="black"/>
<rect x="8" y="38.4" width="1.6" height="1.6" fill="black"/>
<rect x="9.60004" y="38.4" width="1.6" height="1.6" fill="black"/>
<rect x="11.2" y="38.4" width="1.6" height="1.6" fill="black"/>
<rect x="11.2" y="36.8" width="1.6" height="1.6" fill="black"/>
<rect x="17.6" y="36.8" width="1.6" height="1.6" fill="black"/>
<rect x="11.2" y="35.2" width="1.6" height="1.6" fill="black"/>
<rect x="12.8" y="33.6" width="1.6" height="1.6" fill="black"/>
<rect x="14.4" y="32" width="1.6" height="1.6" fill="black"/>
<rect x="16.0001" y="33.6" width="1.6" height="1.6" fill="black"/>
<rect x="17.6" y="35.2" width="1.6" height="1.6" fill="black"/>
<rect x="11.2" y="33.6" width="1.6" height="1.6" fill="#FF0000"/>
<rect x="17.6" y="33.6" width="1.6" height="1.6" fill="black"/>
<rect x="12.8" y="32" width="1.6" height="1.6" fill="#FF0000"/>
<rect x="16.0001" y="32" width="1.6" height="1.6" fill="black"/>
<rect x="17.6" y="38.4" width="1.6" height="1.6" fill="black"/>
<rect x="19.2" y="38.4" width="1.6" height="1.6" fill="black"/>
<rect x="20.8" y="38.4" width="1.6" height="1.6" fill="black"/>
<rect x="22.4" y="38.4" width="1.6" height="1.6" fill="black"/>
<rect x="24.0001" y="38.4" width="1.6" height="1.6" fill="black"/>
<rect x="25.6" y="38.4" width="1.6" height="1.6" fill="black"/>
<rect x="27.2" y="38.4" width="1.6" height="1.6" fill="black"/>
<rect x="28.8" y="38.4" width="1.6" height="1.6" fill="black"/>
<rect x="28.8" y="36.8" width="1.6" height="1.6" fill="black"/>
<rect x="6.40002" y="12.8" width="1.6" height="1.6" fill="#FF0000"/>
<rect x="6.40002" y="11.2" width="1.6" height="1.6" fill="#FF0000"/>
<rect x="6.40002" y="9.60001" width="1.6" height="1.6" fill="#FF0000"/>
<rect x="6.40002" y="8" width="1.6" height="1.6" fill="#FF0000"/>
<rect x="8" y="6.39999" width="1.6" height="1.6" fill="#FF0000"/>
<rect x="9.60004" y="4.79999" width="1.6" height="1.6" fill="#FF0000"/>
<rect x="11.2" y="3.20001" width="1.6" height="1.6" fill="#FF0000"/>
<rect x="9.60004" y="3.20001" width="1.6" height="1.6" fill="#FF0000"/>
<rect x="8" y="3.20001" width="1.6" height="1.6" fill="#FF0000"/>
<rect x="8" y="4.79999" width="1.6" height="1.6" fill="#FF0000"/>
<rect x="6.40002" y="4.79999" width="1.6" height="1.6" fill="#FF0000"/>
<rect x="6.40002" y="3.20001" width="1.6" height="1.6" fill="#FF0000"/>
<rect x="4.79999" y="3.20001" width="1.6" height="1.6" fill="#FF0000"/>
<rect x="4.79999" y="4.79999" width="1.6" height="1.6" fill="#FF0000"/>
<rect x="3.20001" y="4.79999" width="1.6" height="1.6" fill="#FF0000"/>
<rect x="1.60004" y="4.79999" width="1.6" height="1.6" fill="#FF0000"/>
<rect x="1.60004" y="6.39999" width="1.6" height="1.6" fill="#FF0000"/>
<rect x="3.20001" y="6.39999" width="1.6" height="1.6" fill="#FF0000"/>
<rect x="3.20001" y="8" width="1.6" height="1.6" fill="#D9D9D9"/>
<rect x="1.60004" y="8" width="1.6" height="1.6" fill="#D9D9D9"/>
<rect x="1.60004" y="9.60001" width="1.6" height="1.6" fill="#D9D9D9"/>
<rect x="3.20001" y="9.60001" width="1.6" height="1.6" fill="#D9D9D9"/>
<rect x="3.20001" y="3.20001" width="1.6" height="1.6" fill="#FF0000"/>
<rect x="4.79999" y="1.60001" width="1.6" height="1.6" fill="#FF0000"/>
<rect x="9.60004" y="1.60001" width="1.6" height="1.6" fill="#FF0000"/>
<rect x="8" y="1.60001" width="1.6" height="1.6" fill="#FF0000"/>
<rect x="8" width="1.6" height="1.6" fill="#FF0000"/>
<rect x="6.40002" width="1.6" height="1.6" fill="#FF0000"/>
<rect x="6.40002" y="1.60001" width="1.6" height="1.6" fill="#FF0000"/>
<rect x="24.0001" y="8" width="1.6" height="1.6" fill="black"/>
<rect x="24.0001" y="9.60001" width="1.6" height="1.6" fill="black"/>
<rect x="24.0001" y="11.2" width="1.6" height="1.6" fill="black"/>
<rect x="22.4" y="11.2" width="1.6" height="1.6" fill="white"/>
<rect x="20.8" y="12.8" width="1.6" height="1.6" fill="black"/>
<rect x="24.0001" y="12.8" width="1.6" height="1.6" fill="black"/>
<rect x="24.0001" y="14.4" width="1.6" height="1.6" fill="black"/>
<rect x="24.0001" y="16" width="1.6" height="1.6" fill="black"/>
<rect x="25.6" y="19.2" width="1.6" height="1.6" fill="black"/>
<rect x="27.2" y="20.8" width="1.6" height="1.6" fill="black"/>
<rect x="28.8" y="22.4" width="1.6" height="1.6" fill="black"/>
<rect x="28.8" y="24" width="1.6" height="1.6" fill="black"/>
<rect x="28.8" y="25.6" width="1.6" height="1.6" fill="black"/>
<rect x="28.8" y="27.2" width="1.6" height="1.6" fill="black"/>
<rect x="27.2" y="28.8" width="1.6" height="1.6" fill="black"/>
<rect x="25.6" y="28.8" width="1.6" height="1.6" fill="black"/>
<rect x="24.0001" y="28.8" width="1.6" height="1.6" fill="black"/>
<rect x="16.0001" y="25.6" width="1.6" height="1.6" fill="#FF0000"/>
<rect x="16.0001" y="28.8" width="1.6" height="1.6" fill="black"/>
<rect x="22.4" y="27.2" width="1.6" height="1.6" fill="black"/>
<rect x="22.4" y="25.6" width="1.6" height="1.6" fill="black"/>
<rect y="22.4" width="1.6" height="1.6" fill="black"/>
<rect y="24" width="1.6" height="1.6" fill="black"/>
<rect y="25.6" width="1.6" height="1.6" fill="black"/>
<rect y="27.2" width="1.6" height="1.6" fill="black"/>
<rect x="1.60004" y="28.8" width="1.6" height="1.6" fill="black"/>
<rect x="3.20001" y="28.8" width="1.6" height="1.6" fill="black"/>
<rect x="4.79999" y="28.8" width="1.6" height="1.6" fill="black"/>
<rect x="6.40002" y="27.2" width="1.6" height="1.6" fill="black"/>
<rect x="6.40002" y="25.6" width="1.6" height="1.6" fill="black"/>
<rect x="6.40002" y="24" width="1.6" height="1.6" fill="black"/>
<rect x="8" y="24" width="1.6" height="1.6" fill="black"/>
<rect x="8" y="22.4" width="1.6" height="1.6" fill="black"/>
<rect x="1.60004" y="35.2" width="1.6" height="1.6" fill="black"/>
<rect x="3.20001" y="33.6" width="1.6" height="1.6" fill="black"/>
<rect x="4.79999" y="33.6" width="1.6" height="1.6" fill="#FF0000"/>
<rect x="4.79999" y="32" width="1.6" height="1.6" fill="black"/>
<rect x="6.40002" y="30.4" width="1.6" height="1.6" fill="black"/>
<rect x="8" y="28.8" width="1.6" height="1.6" fill="black"/>
<rect x="27.2" y="35.2" width="1.6" height="1.6" fill="black"/>
<rect x="24.0001" y="33.6" width="1.6" height="1.6" fill="#FF0000"/>
<rect x="24.0001" y="32" width="1.6" height="1.6" fill="black"/>
<rect x="22.4" y="30.4" width="1.6" height="1.6" fill="black"/>
<rect x="20.8" y="28.8" width="1.6" height="1.6" fill="black"/>
<rect x="25.6" y="33.6" width="1.6" height="1.6" fill="black"/>
<rect x="20.8" y="24" width="1.6" height="1.6" fill="black"/>
<rect x="20.8" y="22.4" width="1.6" height="1.6" fill="#FF0000"/>
<rect x="24.0001" y="24" width="1.6" height="1.6" fill="#FF0000"/>
<rect x="22.4" y="24" width="1.6" height="1.6" fill="black"/>
<rect x="22.4" y="17.6" width="1.6" height="1.6" fill="black"/>
<rect x="20.8" y="19.2" width="1.6" height="1.6" fill="black"/>
<rect x="19.2" y="20.8" width="1.6" height="1.6" fill="black"/>
<rect x="17.6" y="20.8" width="1.6" height="1.6" fill="#FF0000"/>
<rect x="16.0001" y="20.8" width="1.6" height="1.6" fill="#FF0000"/>
<rect x="16.0001" y="22.4" width="1.6" height="1.6" fill="#D9D9D9"/>
<rect x="14.4" y="20.8" width="1.6" height="1.6" fill="#FF0000"/>
<rect x="12.8" y="20.8" width="1.6" height="1.6" fill="#FF0000"/>
<rect x="11.2" y="19.2" width="1.6" height="1.6" fill="#FF0000"/>
<rect x="9.60004" y="17.6" width="1.6" height="1.6" fill="#FF0000"/>
<rect x="8" y="17.6" width="1.6" height="1.6" fill="#FF0000"/>
<rect x="8" y="16" width="1.6" height="1.6" fill="#FF0000"/>
<rect x="8" y="14.4" width="1.6" height="1.6" fill="#FF0000"/>
<rect x="6.40002" y="14.4" width="1.6" height="1.6" fill="#FF0000"/>
<rect x="6.40002" y="17.6" width="1.6" height="1.6" fill="black"/>
<rect x="4.79999" y="17.6" width="1.6" height="1.6" fill="black"/>
<rect x="4.79999" y="24" width="1.6" height="1.6" fill="black"/>
<rect x="1.60004" y="20.8" width="1.6" height="1.6" fill="black"/>
<rect x="3.20001" y="19.2" width="1.6" height="1.6" fill="black"/>
<rect x="16.0001" y="12.8" width="1.6" height="1.6" fill="black"/>
<rect x="16.0001" y="11.2" width="1.6" height="1.6" fill="white"/>
<rect x="14.4" y="9.60001" width="1.6" height="1.6" fill="white"/>
<rect x="17.6" y="12.8" width="1.6" height="1.6" fill="black"/>
<rect x="17.6" y="14.4" width="1.6" height="1.6" fill="black"/>
<rect x="16.0001" y="14.4" width="1.6" height="1.6" fill="black"/>
<rect x="20.8" y="14.4" width="1.6" height="1.6" fill="black"/>
<rect x="20.8" y="3.20001" width="1.6" height="1.6" fill="black"/>
<rect x="22.4" y="4.79999" width="1.6" height="1.6" fill="black"/>
<rect x="9.60004" y="36.8" width="1.6" height="1.6" fill="#FF0000"/>
<rect x="19.2" y="36.8" width="1.6" height="1.6" fill="black"/>
<rect x="20.8" y="36.8" width="1.6" height="1.6" fill="black"/>
<rect x="22.4" y="36.8" width="1.6" height="1.6" fill="#FF0000"/>
<rect x="24.0001" y="36.8" width="1.6" height="1.6" fill="black"/>
<rect x="25.6" y="36.8" width="1.6" height="1.6" fill="black"/>
<rect x="27.2" y="36.8" width="1.6" height="1.6" fill="black"/>
<rect x="8" y="36.8" width="1.6" height="1.6" fill="#FF0000"/>
<rect x="6.40002" y="36.8" width="1.6" height="1.6" fill="#FF0000"/>
<rect x="4.79999" y="36.8" width="1.6" height="1.6" fill="#FF0000"/>
<rect x="3.20001" y="36.8" width="1.6" height="1.6" fill="black"/>
<rect x="1.60004" y="36.8" width="1.6" height="1.6" fill="#FF0000"/>
<rect x="8" y="30.4" width="1.6" height="1.6" fill="#FF0000"/>
<rect x="6.40002" y="32" width="1.6" height="1.6" fill="#FF0000"/>
<rect x="6.40002" y="33.6" width="1.6" height="1.6" fill="#FF0000"/>
<rect x="3.20001" y="35.2" width="1.6" height="1.6" fill="#FF0000"/>
<rect x="25.6" y="35.2" width="1.6" height="1.6" fill="black"/>
<rect x="22.4" y="33.6" width="1.6" height="1.6" fill="black"/>
<rect x="22.4" y="32" width="1.6" height="1.6" fill="#FF0000"/>
<rect x="20.8" y="30.4" width="1.6" height="1.6" fill="#FF0000"/>
<rect x="11.2" y="30.4" width="1.6" height="1.6" fill="#FF0000"/>
<rect x="9.60004" y="27.2" width="1.6" height="1.6" fill="black"/>
<rect x="9.60004" y="24" width="1.6" height="1.6" fill="black"/>
<rect x="9.60004" y="25.6" width="1.6" height="1.6" fill="black"/>
<rect x="11.2" y="25.6" width="1.6" height="1.6" fill="black"/>
<rect x="11.2" y="27.2" width="1.6" height="1.6" fill="#FF0000"/>
<rect x="12.8" y="25.6" width="1.6" height="1.6" fill="black"/>
<rect x="19.2" y="25.6" width="1.6" height="1.6" fill="black"/>
<rect x="12.8" y="24" width="1.6" height="1.6" fill="black"/>
<rect x="19.2" y="24" width="1.6" height="1.6" fill="#FF0000"/>
<rect x="19.2" y="22.4" width="1.6" height="1.6" fill="#D9D9D9"/>
<rect x="12.8" y="30.4" width="1.6" height="1.6" fill="#FF0000"/>
<rect x="25.6" y="22.4" width="1.6" height="1.6" fill="#FF0000"/>
<rect x="25.6" y="24" width="1.6" height="1.6" fill="#D9D9D9"/>
<rect x="27.2" y="24" width="1.6" height="1.6" fill="#D9D9D9"/>
<rect x="27.2" y="22.4" width="1.6" height="1.6" fill="#FF0000"/>
<rect x="1.60004" y="24" width="1.6" height="1.6" fill="#D9D9D9"/>
<rect x="1.60004" y="22.4" width="1.6" height="1.6" fill="black"/>
<rect x="3.20001" y="24" width="1.6" height="1.6" fill="#D9D9D9"/>
<rect x="3.20001" y="22.4" width="1.6" height="1.6" fill="black"/>
<rect x="3.20001" y="20.8" width="1.6" height="1.6" fill="black"/>
<rect x="4.79999" y="22.4" width="1.6" height="1.6" fill="black"/>
<rect x="4.79999" y="20.8" width="1.6" height="1.6" fill="black"/>
<rect x="6.40002" y="22.4" width="1.6" height="1.6" fill="black"/>
<rect x="6.40002" y="20.8" width="1.6" height="1.6" fill="black"/>
<rect x="6.40002" y="19.2" width="1.6" height="1.6" fill="black"/>
<rect x="4.79999" y="19.2" width="1.6" height="1.6" fill="black"/>
<rect x="8" y="19.2" width="1.6" height="1.6" fill="#D9D9D9"/>
<rect x="9.60004" y="19.2" width="1.6" height="1.6" fill="#FF0000"/>
<rect x="9.60004" y="20.8" width="1.6" height="1.6" fill="#D9D9D9"/>
<rect x="8" y="20.8" width="1.6" height="1.6" fill="black"/>
<rect x="24.0001" y="19.2" width="1.6" height="1.6" fill="black"/>
<rect x="24.0001" y="20.8" width="1.6" height="1.6" fill="#FF0000"/>
<rect x="22.4" y="20.8" width="1.6" height="1.6" fill="#FF0000"/>
<rect x="22.4" y="19.2" width="1.6" height="1.6" fill="#D9D9D9"/>
<rect x="20.8" y="20.8" width="1.6" height="1.6" fill="#D9D9D9"/>
<rect x="24.0001" y="22.4" width="1.6" height="1.6" fill="#FF0000"/>
<rect x="22.4" y="22.4" width="1.6" height="1.6" fill="#FF0000"/>
<rect x="25.6" y="20.8" width="1.6" height="1.6" fill="#FF0000"/>
<rect x="9.60004" y="35.2" width="1.6" height="1.6" fill="#FF0000"/>
<rect x="19.2" y="35.2" width="1.6" height="1.6" fill="black"/>
<rect x="20.8" y="35.2" width="1.6" height="1.6" fill="#FF0000"/>
<rect x="22.4" y="35.2" width="1.6" height="1.6" fill="black"/>
<rect x="24.0001" y="35.2" width="1.6" height="1.6" fill="black"/>
<rect x="8" y="35.2" width="1.6" height="1.6" fill="black"/>
<rect x="6.40002" y="35.2" width="1.6" height="1.6" fill="#FF0000"/>
<rect x="4.79999" y="35.2" width="1.6" height="1.6" fill="black"/>
<rect x="14.4" y="30.4" width="1.6" height="1.6" fill="black"/>
<rect x="16.0001" y="30.4" width="1.6" height="1.6" fill="black"/>
<rect x="17.6" y="30.4" width="1.6" height="1.6" fill="black"/>
<rect x="19.2" y="33.6" width="1.6" height="1.6" fill="black"/>
<rect x="9.60004" y="33.6" width="1.6" height="1.6" fill="black"/>
<rect x="20.8" y="33.6" width="1.6" height="1.6" fill="black"/>
<rect x="20.8" y="32" width="1.6" height="1.6" fill="black"/>
<rect x="11.2" y="32" width="1.6" height="1.6" fill="#FF0000"/>
<rect x="19.2" y="32" width="1.6" height="1.6" fill="black"/>
<rect x="9.60004" y="32" width="1.6" height="1.6" fill="#FF0000"/>
<rect x="19.2" y="30.4" width="1.6" height="1.6" fill="black"/>
<rect x="9.60004" y="30.4" width="1.6" height="1.6" fill="black"/>
<rect x="17.6" y="32" width="1.6" height="1.6" fill="black"/>
<rect x="8" y="32" width="1.6" height="1.6" fill="#FF0000"/>
<rect x="8" y="33.6" width="1.6" height="1.6" fill="#FF0000"/>
<rect x="20.8" y="16" width="1.6" height="1.6" fill="white"/>
<rect x="17.6" y="16" width="1.6" height="1.6" fill="white"/>
<rect x="16.0001" y="16" width="1.6" height="1.6" fill="white"/>
<rect x="14.4" y="14.4" width="1.6" height="1.6" fill="white"/>
<rect x="14.4" y="12.8" width="1.6" height="1.6" fill="white"/>
<rect x="17.6" y="11.2" width="1.6" height="1.6" fill="white"/>
<rect x="19.2" y="19.2" width="1.6" height="1.6" fill="white"/>
<rect x="19.2" y="16" width="1.6" height="1.6" fill="white"/>
<rect x="19.2" y="14.4" width="1.6" height="1.6" fill="white"/>
<rect x="19.2" y="12.8" width="1.6" height="1.6" fill="white"/>
<rect x="20.8" y="17.6" width="1.6" height="1.6" fill="white"/>
<rect x="22.4" y="16" width="1.6" height="1.6" fill="white"/>
<rect x="17.6" y="19.2" width="1.6" height="1.6" fill="white"/>
<rect x="16.0001" y="19.2" width="1.6" height="1.6" fill="white"/>
<rect x="14.4" y="19.2" width="1.6" height="1.6" fill="white"/>
<rect x="14.4" y="16" width="1.6" height="1.6" fill="#FF0000"/>
<rect x="12.8" y="17.6" width="1.6" height="1.6" fill="white"/>
<rect x="11.2" y="17.6" width="1.6" height="1.6" fill="#FF0000"/>
<rect x="11.2" y="16" width="1.6" height="1.6" fill="white"/>
<rect x="9.60004" y="16" width="1.6" height="1.6" fill="#FF0000"/>
<rect x="11.2" y="14.4" width="1.6" height="1.6" fill="white"/>
<rect x="12.8" y="14.4" width="1.6" height="1.6" fill="white"/>
<rect x="12.8" y="12.8" width="1.6" height="1.6" fill="white"/>
<rect x="11.2" y="11.2" width="1.6" height="1.6" fill="#FF0000"/>
<rect x="12.8" y="9.60001" width="1.6" height="1.6" fill="#FF0000"/>
<rect x="14.4" y="8" width="1.6" height="1.6" fill="#FF0000"/>
<rect x="16.0001" y="8" width="1.6" height="1.6" fill="#FF0000"/>
<rect x="16.0001" y="9.60001" width="1.6" height="1.6" fill="white"/>
<rect x="17.6" y="9.60001" width="1.6" height="1.6" fill="white"/>
<rect x="14.4" y="11.2" width="1.6" height="1.6" fill="white"/>
<rect x="12.8" y="19.2" width="1.6" height="1.6" fill="#FF0000"/>
<rect x="11.2" y="20.8" width="1.6" height="1.6" fill="#FF0000"/>
<rect x="12.8" y="22.4" width="1.6" height="1.6" fill="#D9D9D9"/>
<rect x="11.2" y="24" width="1.6" height="1.6" fill="black"/>
<rect x="9.60004" y="22.4" width="1.6" height="1.6" fill="black"/>
<rect x="16.0001" y="6.39999" width="1.6" height="1.6" fill="#FF0000"/>
<rect x="22.4" y="6.39999" width="1.6" height="1.6" fill="black"/>
<rect x="20.8" y="8" width="1.6" height="1.6" fill="black"/>
<rect x="22.4" y="8" width="1.6" height="1.6" fill="black"/>
<rect x="20.8" y="9.60001" width="1.6" height="1.6" fill="white"/>
<rect x="19.2" y="9.60001" width="1.6" height="1.6" fill="white"/>
<rect x="19.2" y="11.2" width="1.6" height="1.6" fill="white"/>
<rect x="12.8" y="11.2" width="1.6" height="1.6" fill="white"/>
<rect x="11.2" y="12.8" width="1.6" height="1.6" fill="white"/>
<rect x="9.60004" y="12.8" width="1.6" height="1.6" fill="#FF0000"/>
<rect x="9.60004" y="14.4" width="1.6" height="1.6" fill="#FF0000"/>
<rect x="8" y="12.8" width="1.6" height="1.6" fill="#FF0000"/>
<rect x="8" y="11.2" width="1.6" height="1.6" fill="#FF0000"/>
<rect x="22.4" y="9.60001" width="1.6" height="1.6" fill="black"/>
<rect x="20.8" y="11.2" width="1.6" height="1.6" fill="white"/>
<rect x="22.4" y="12.8" width="1.6" height="1.6" fill="white"/>
<rect x="22.4" y="14.4" width="1.6" height="1.6" fill="white"/>
<rect x="17.6" y="8" width="1.6" height="1.6" fill="#FF0000"/>
<rect x="14.4" y="6.39999" width="1.6" height="1.6" fill="#FF0000"/>
<rect x="12.8" y="8" width="1.6" height="1.6" fill="#FF0000"/>
<rect x="11.2" y="9.60001" width="1.6" height="1.6" fill="#FF0000"/>
<rect x="24.0001" y="25.6" width="1.6" height="1.6" fill="#D9D9D9"/>
<rect x="25.6" y="25.6" width="1.6" height="1.6" fill="#D9D9D9"/>
<rect x="27.2" y="25.6" width="1.6" height="1.6" fill="#D9D9D9"/>
<rect x="24.0001" y="27.2" width="1.6" height="1.6" fill="#D9D9D9"/>
<rect x="25.6" y="27.2" width="1.6" height="1.6" fill="#D9D9D9"/>
<rect x="27.2" y="27.2" width="1.6" height="1.6" fill="#D9D9D9"/>
<rect x="3.20001" y="25.6" width="1.6" height="1.6" fill="#D9D9D9"/>
<rect x="4.79999" y="25.6" width="1.6" height="1.6" fill="#D9D9D9"/>
<rect x="4.79999" y="27.2" width="1.6" height="1.6" fill="#D9D9D9"/>
<rect x="3.20001" y="27.2" width="1.6" height="1.6" fill="#D9D9D9"/>
<rect x="1.60004" y="27.2" width="1.6" height="1.6" fill="#D9D9D9"/>
<rect x="1.60004" y="25.6" width="1.6" height="1.6" fill="#D9D9D9"/>
<rect x="8" y="8" width="1.6" height="1.6" fill="#FF0000"/>
<rect x="8" y="9.60001" width="1.6" height="1.6" fill="#FF0000"/>
<rect x="9.60004" y="11.2" width="1.6" height="1.6" fill="#FF0000"/>
<rect x="12.8" y="3.20001" width="1.6" height="1.6" fill="#FF0000"/>
<rect x="9.60004" y="8" width="1.6" height="1.6" fill="#FF0000"/>
<rect x="9.60004" y="6.39999" width="1.6" height="1.6" fill="#FF0000"/>
<rect x="11.2" y="6.39999" width="1.6" height="1.6" fill="#FF0000"/>
<rect x="11.2" y="4.79999" width="1.6" height="1.6" fill="#FF0000"/>
<rect x="12.8" y="4.79999" width="1.6" height="1.6" fill="#FF0000"/>
<rect x="14.4" y="4.79999" width="1.6" height="1.6" fill="#FF0000"/>
<rect x="14.4" y="3.20001" width="1.6" height="1.6" fill="#FF0000"/>
<rect x="16.0001" y="3.20001" width="1.6" height="1.6" fill="black"/>
<rect x="16.0001" y="4.79999" width="1.6" height="1.6" fill="#FF0000"/>
<rect x="17.6" y="6.39999" width="1.6" height="1.6" fill="#FF0000"/>
<rect x="17.6" y="4.79999" width="1.6" height="1.6" fill="black"/>
<rect x="17.6" y="3.20001" width="1.6" height="1.6" fill="black"/>
<rect x="19.2" y="3.20001" width="1.6" height="1.6" fill="black"/>
<rect x="20.8" y="4.79999" width="1.6" height="1.6" fill="black"/>
<rect x="20.8" y="3.20001" width="1.6" height="1.6" fill="black"/>
<rect x="20.8" y="1.60001" width="1.6" height="1.6" fill="black"/>
<rect x="22.4" y="1.60001" width="1.6" height="1.6" fill="black"/>
<rect x="22.4" width="1.6" height="1.6" fill="black"/>
<rect x="24.0001" width="1.6" height="1.6" fill="black"/>
<rect x="24.0001" y="1.60001" width="1.6" height="1.6" fill="black"/>
<rect x="25.6" y="1.60001" width="1.6" height="1.6" fill="black"/>
<rect x="25.6" y="3.20001" width="1.6" height="1.6" fill="black"/>
<rect x="27.2" y="3.20001" width="1.6" height="1.6" fill="black"/>
<rect x="27.2" y="4.79999" width="1.6" height="1.6" fill="black"/>
<rect x="25.6" y="4.79999" width="1.6" height="1.6" fill="black"/>
<rect x="24.0001" y="4.79999" width="1.6" height="1.6" fill="black"/>
<rect x="24.0001" y="3.20001" width="1.6" height="1.6" fill="black"/>
<rect x="22.4" y="3.20001" width="1.6" height="1.6" fill="black"/>
<rect x="28.8" y="4.79999" width="1.6" height="1.6" fill="black"/>
<rect x="28.8" y="6.39999" width="1.6" height="1.6" fill="black"/>
<rect x="28.8" y="8" width="1.6" height="1.6" fill="#D9D9D9"/>
<rect x="27.2" y="8" width="1.6" height="1.6" fill="#D9D9D9"/>
<rect x="27.2" y="9.60001" width="1.6" height="1.6" fill="#D9D9D9"/>
<rect x="28.8" y="9.60001" width="1.6" height="1.6" fill="#D9D9D9"/>
<rect x="27.2" y="6.39999" width="1.6" height="1.6" fill="black"/>
<rect x="19.2" y="4.79999" width="1.6" height="1.6" fill="black"/>
<rect x="19.2" y="6.39999" width="1.6" height="1.6" fill="black"/>
<rect x="20.8" y="6.39999" width="1.6" height="1.6" fill="black"/>
<rect x="19.2" y="8" width="1.6" height="1.6" fill="black"/>
<rect x="17.6" y="22.4" width="1.6" height="1.6" fill="#D9D9D9"/>
<rect x="14.4" y="22.4" width="1.6" height="1.6" fill="#D9D9D9"/>
<rect x="12.8" y="6.39999" width="1.6" height="1.6" fill="#FF0000"/>
<rect x="11.2" y="8" width="1.6" height="1.6" fill="#FF0000"/>
<rect x="9.60004" y="9.60001" width="1.6" height="1.6" fill="#FF0000"/>
</svg>
