<svg width="54" height="64" viewBox="0 0 54 64" fill="none" xmlns="http://www.w3.org/2000/svg">
<rect x="5.33325" y="24" width="2.66667" height="2.66667" fill="#000500"/>
<rect x="8" y="21.3333" width="2.66667" height="2.66667" fill="#000500"/>
<rect x="10.6666" y="18.6667" width="2.66667" height="2.66667" fill="#000500"/>
<rect x="10.6666" y="16" width="2.66667" height="2.66667" fill="#000500"/>
<rect x="13.3333" y="13.3333" width="2.66667" height="2.66667" fill="#000500"/>
<rect x="13.3333" y="10.6667" width="2.66667" height="2.66667" fill="#000500"/>
<rect x="16" y="8" width="2.66667" height="2.66667" fill="#000500"/>
<rect x="18.6666" y="5.33331" width="2.66667" height="2.66667" fill="#000500"/>
<rect x="21.3333" y="2.66669" width="2.66667" height="2.66667" fill="#000500"/>
<rect x="24" y="2.66669" width="2.66667" height="2.66667" fill="#000500"/>
<rect x="26.6666" width="2.66667" height="2.66667" fill="#000500"/>
<rect x="29.3333" width="2.66667" height="2.66667" fill="#000500"/>
<rect x="32" width="2.66667" height="2.66667" fill="#000500"/>
<rect x="34.6666" width="2.66667" height="2.66667" fill="#000500"/>
<rect x="37.3333" width="2.66667" height="2.66667" fill="#000500"/>
<rect x="40" y="2.66669" width="2.66667" height="2.66667" fill="#000500"/>
<rect x="42.6666" y="5.33331" width="2.66667" height="2.66667" fill="#000500"/>
<rect x="45.3333" y="8" width="2.66667" height="2.66667" fill="#000500"/>
<rect x="48" y="10.6667" width="2.66667" height="2.66667" fill="#000500"/>
<rect x="48" y="13.3333" width="2.66667" height="2.66667" fill="#000500"/>
<rect x="50.6666" y="16" width="2.66667" height="2.66667" fill="#000500"/>
<rect x="50.6666" y="18.6667" width="2.66667" height="2.66667" fill="#000500"/>
<rect x="50.6666" y="21.3333" width="2.66667" height="2.66667" fill="#000500"/>
<rect x="50.6666" y="24" width="2.66667" height="2.66667" fill="#000500"/>
<rect x="50.6666" y="26.6667" width="2.66667" height="2.66667" fill="#000500"/>
<rect x="48" y="29.3333" width="2.66667" height="2.66667" fill="#000500"/>
<rect x="48" y="32" width="2.66667" height="2.66667" fill="#000500"/>
<rect x="50.6666" y="34.6667" width="2.66667" height="2.66667" fill="#000500"/>
<rect x="50.6666" y="37.3333" width="2.66667" height="2.66667" fill="#000500"/>
<rect x="50.6666" y="40" width="2.66667" height="2.66667" fill="#000500"/>
<rect x="50.6666" y="42.6667" width="2.66667" height="2.66667" fill="#000500"/>
<rect x="48" y="45.3333" width="2.66667" height="2.66667" fill="#000500"/>
<rect x="45.3333" y="45.3333" width="2.66667" height="2.66667" fill="#000500"/>
<rect x="42.6666" y="45.3333" width="2.66667" height="2.66667" fill="#000500"/>
<rect x="40" y="42.6667" width="2.66667" height="2.66667" fill="#000500"/>
<rect x="40" y="40" width="2.66667" height="2.66667" fill="#000500"/>
<rect x="2.66663" y="26.6667" width="2.66667" height="2.66667" fill="#000500"/>
<rect y="29.3333" width="2.66667" height="2.66667" fill="#000500"/>
<rect y="32" width="2.66667" height="2.66667" fill="#000500"/>
<rect x="2.66663" y="34.6667" width="2.66667" height="2.66667" fill="#000500"/>
<rect x="2.66663" y="37.3333" width="2.66667" height="2.66667" fill="#000500"/>
<rect x="2.66663" y="40" width="2.66667" height="2.66667" fill="#000500"/>
<rect x="2.66663" y="42.6667" width="2.66667" height="2.66667" fill="#000500"/>
<rect x="5.33325" y="45.3333" width="2.66667" height="2.66667" fill="#000500"/>
<rect x="8" y="45.3333" width="2.66667" height="2.66667" fill="#000500"/>
<rect x="10.6666" y="45.3333" width="2.66667" height="2.66667" fill="#000500"/>
<rect x="13.3333" y="42.6667" width="2.66667" height="2.66667" fill="#000500"/>
<rect x="13.3333" y="40" width="2.66667" height="2.66667" fill="#000500"/>
<rect x="13.3333" y="37.3333" width="2.66667" height="2.66667" fill="#000500"/>
<rect x="16" y="37.3333" width="2.66667" height="2.66667" fill="#000500"/>
<rect x="16" y="40" width="2.66667" height="2.66667" fill="#000500"/>
<rect x="18.6666" y="42.6667" width="2.66667" height="2.66667" fill="#000500"/>
<rect x="18.6666" y="45.3333" width="2.66667" height="2.66667" fill="#000500"/>
<rect x="16" y="48" width="2.66667" height="2.66667" fill="#000500"/>
<rect x="13.3333" y="50.6667" width="2.66667" height="2.66667" fill="#000500"/>
<rect x="13.3333" y="53.3333" width="2.66667" height="2.66667" fill="#000500"/>
<rect x="10.6666" y="53.3333" width="2.66667" height="2.66667" fill="#000500"/>
<rect x="8" y="56" width="2.66667" height="2.66667" fill="#000500"/>
<rect x="5.33325" y="56" width="2.66667" height="2.66667" fill="#000500"/>
<rect x="2.66663" y="58.6667" width="2.66667" height="2.66667" fill="#000500"/>
<rect x="2.66663" y="61.3333" width="2.66667" height="2.66667" fill="#000500"/>
<rect x="5.33325" y="61.3333" width="2.66667" height="2.66667" fill="#000500"/>
<rect x="8" y="61.3333" width="2.66667" height="2.66667" fill="#000500"/>
<rect x="10.6666" y="61.3333" width="2.66667" height="2.66667" fill="#000500"/>
<rect x="13.3333" y="61.3333" width="2.66667" height="2.66667" fill="#000500"/>
<rect x="16" y="61.3333" width="2.66667" height="2.66667" fill="#000500"/>
<rect x="18.6666" y="61.3333" width="2.66667" height="2.66667" fill="#000500"/>
<rect x="21.3333" y="61.3333" width="2.66667" height="2.66667" fill="#000500"/>
<rect x="21.3333" y="58.6667" width="2.66667" height="2.66667" fill="#000500"/>
<rect x="21.3333" y="56" width="2.66667" height="2.66667" fill="#000500"/>
<rect x="24" y="53.3333" width="2.66667" height="2.66667" fill="#000500"/>
<rect x="26.6666" y="50.6667" width="2.66667" height="2.66667" fill="#000500"/>
<rect x="29.3333" y="53.3333" width="2.66667" height="2.66667" fill="#000500"/>
<rect x="32" y="56" width="2.66667" height="2.66667" fill="#000500"/>
<rect x="32" y="58.6667" width="2.66667" height="2.66667" fill="#000500"/>
<rect x="32" y="61.3333" width="2.66667" height="2.66667" fill="#000500"/>
<rect x="34.6666" y="61.3333" width="2.66667" height="2.66667" fill="#000500"/>
<rect x="37.3333" y="61.3333" width="2.66667" height="2.66667" fill="#000500"/>
<rect x="40" y="61.3333" width="2.66667" height="2.66667" fill="#000500"/>
<rect x="42.6666" y="61.3333" width="2.66667" height="2.66667" fill="#000500"/>
<rect x="45.3333" y="61.3333" width="2.66667" height="2.66667" fill="#000500"/>
<rect x="48" y="61.3333" width="2.66667" height="2.66667" fill="#000500"/>
<rect x="50.6666" y="61.3333" width="2.66667" height="2.66667" fill="#000500"/>
<rect x="50.6666" y="58.6667" width="2.66667" height="2.66667" fill="#000500"/>
<rect x="48" y="56" width="2.66667" height="2.66667" fill="#000500"/>
<rect x="45.3333" y="56" width="2.66667" height="2.66667" fill="#000500"/>
<rect x="42.6666" y="53.3333" width="2.66667" height="2.66667" fill="#000500"/>
<rect x="40" y="53.3333" width="2.66667" height="2.66667" fill="#000500"/>
<rect x="40" y="50.6667" width="2.66667" height="2.66667" fill="#000500"/>
<rect x="37.3333" y="48" width="2.66667" height="2.66667" fill="#000500"/>
<rect x="34.6666" y="45.3333" width="2.66667" height="2.66667" fill="#000500"/>
<rect x="34.6666" y="42.6667" width="2.66667" height="2.66667" fill="#000500"/>
<rect x="37.3333" y="40" width="2.66667" height="2.66667" fill="#000500"/>
<rect x="37.3333" y="37.3333" width="2.66667" height="2.66667" fill="#000500"/>
<rect x="42.6666" y="37.3333" width="2.66667" height="2.66667" fill="#000500"/>
<rect x="40" y="26.6667" width="2.66667" height="2.66667" fill="#000500"/>
<rect x="40" y="29.3333" width="2.66667" height="2.66667" fill="#000500"/>
<rect x="37.3333" y="29.3333" width="2.66667" height="2.66667" fill="#000500"/>
<rect x="34.6666" y="32" width="2.66667" height="2.66667" fill="#000500"/>
<rect x="32" y="32" width="2.66667" height="2.66667" fill="#000500"/>
<rect x="29.3333" y="32" width="2.66667" height="2.66667" fill="#000500"/>
<rect x="26.6666" y="32" width="2.66667" height="2.66667" fill="#000500"/>
<rect x="24" y="32" width="2.66667" height="2.66667" fill="#000500"/>
<rect x="13.3333" y="34.6667" width="2.66667" height="2.66667" fill="#000500"/>
<rect x="10.6666" y="37.3333" width="2.66667" height="2.66667" fill="#000500"/>
<rect x="5.33325" y="32" width="2.66667" height="2.66667" fill="#000500"/>
<rect x="8" y="29.3333" width="2.66667" height="2.66667" fill="#000500"/>
<rect x="37.3333" y="24" width="2.66667" height="2.66667" fill="white"/>
<rect x="32" y="24" width="2.66667" height="2.66667" fill="white"/>
<rect x="29.3333" y="24" width="2.66667" height="2.66667" fill="white"/>
<rect x="26.6666" y="21.3333" width="2.66667" height="2.66667" fill="white"/>
<rect x="26.6666" y="18.6667" width="2.66667" height="2.66667" fill="white"/>
<rect x="29.3333" y="16" width="2.66667" height="2.66667" fill="white"/>
<rect x="32" y="16" width="2.66667" height="2.66667" fill="white"/>
<rect x="29.3333" y="18.6667" width="2.66667" height="2.66667" fill="#004000"/>
<rect x="32" y="18.6667" width="2.66667" height="2.66667" fill="#004000"/>
<rect x="32" y="21.3333" width="2.66667" height="2.66667" fill="#004000"/>
<rect x="29.3333" y="21.3333" width="2.66667" height="2.66667" fill="#004000"/>
<rect x="29.3333" y="26.6667" width="2.66667" height="2.66667" fill="#004000"/>
<rect x="32" y="26.6667" width="2.66667" height="2.66667" fill="#004000"/>
<rect x="37.3333" y="21.3333" width="2.66667" height="2.66667" fill="#004000"/>
<rect x="8" y="32" width="2.66667" height="2.66667" fill="#E6E6AC"/>
<rect x="10.6666" y="32" width="2.66667" height="2.66667" fill="#E6E6AC"/>
<rect x="13.3333" y="32" width="2.66667" height="2.66667" fill="#E6E6AC"/>
<rect x="16" y="34.6667" width="2.66667" height="2.66667" fill="#E6E6AC"/>
<rect x="26.6666" y="37.3333" width="2.66667" height="2.66667" fill="#E6E6AC"/>
<rect x="26.6666" y="34.6667" width="2.66667" height="2.66667" fill="#E6E6AC"/>
<rect x="29.3333" y="34.6667" width="2.66667" height="2.66667" fill="#E6E6AC"/>
<rect x="32" y="34.6667" width="2.66667" height="2.66667" fill="#E6E6AC"/>
<rect x="34.6666" y="34.6667" width="2.66667" height="2.66667" fill="#E6E6AC"/>
<rect x="37.3333" y="34.6667" width="2.66667" height="2.66667" fill="#E6E6AC"/>
<rect x="37.3333" y="32" width="2.66667" height="2.66667" fill="#E6E6AC"/>
<rect x="34.6666" y="29.3333" width="2.66667" height="2.66667" fill="#E6E6AC"/>
<rect x="34.6666" y="26.6667" width="2.66667" height="2.66667" fill="#E6E6AC"/>
<rect x="34.6666" y="24" width="2.66667" height="2.66667" fill="#E6E6AC"/>
<rect x="34.6666" y="21.3333" width="2.66667" height="2.66667" fill="#E6E6AC"/>
<rect x="34.6666" y="18.6667" width="2.66667" height="2.66667" fill="#E6E6AC"/>
<rect x="37.3333" y="26.6667" width="2.66667" height="2.66667" fill="#E6E6AC"/>
<rect x="40" y="24" width="2.66667" height="2.66667" fill="#E6E6AC"/>
<rect x="32" y="29.3333" width="2.66667" height="2.66667" fill="#E6E6AC"/>
<rect x="29.3333" y="29.3333" width="2.66667" height="2.66667" fill="#E6E6AC"/>
<rect x="26.6666" y="29.3333" width="2.66667" height="2.66667" fill="#E6E6AC"/>
<rect x="26.6666" y="26.6667" width="2.66667" height="2.66667" fill="#E6E6AC"/>
<rect x="26.6666" y="24" width="2.66667" height="2.66667" fill="#E6E6AC"/>
<rect x="24" y="26.6667" width="2.66667" height="2.66667" fill="#E6E6AC"/>
<rect x="24" y="24" width="2.66667" height="2.66667" fill="#E6E6AC"/>
<rect x="21.3333" y="26.6667" width="2.66667" height="2.66667" fill="#E6E6AC"/>
<rect x="21.3333" y="24" width="2.66667" height="2.66667" fill="#E6E6AC"/>
<rect x="18.6666" y="24" width="2.66667" height="2.66667" fill="#E6E6AC"/>
<rect x="18.6666" y="21.3333" width="2.66667" height="2.66667" fill="#E6E6AC"/>
<rect x="21.3333" y="21.3333" width="2.66667" height="2.66667" fill="#E6E6AC"/>
<rect x="24" y="21.3333" width="2.66667" height="2.66667" fill="#E6E6AC"/>
<rect x="24" y="18.6667" width="2.66667" height="2.66667" fill="#E6E6AC"/>
<rect x="21.3333" y="18.6667" width="2.66667" height="2.66667" fill="#E6E6AC"/>
<rect x="21.3333" y="16" width="2.66667" height="2.66667" fill="#E6E6AC"/>
<rect x="24" y="16" width="2.66667" height="2.66667" fill="#E6E6AC"/>
<rect x="24" y="13.3333" width="2.66667" height="2.66667" fill="#E6E6AC"/>
<rect x="26.6666" y="13.3333" width="2.66667" height="2.66667" fill="#E6E6AC"/>
<rect x="26.6666" y="10.6667" width="2.66667" height="2.66667" fill="#E6E6AC"/>
<rect x="29.3333" y="10.6667" width="2.66667" height="2.66667" fill="#E6E6AC"/>
<rect x="29.3333" y="13.3333" width="2.66667" height="2.66667" fill="#E6E6AC"/>
<rect x="32" y="13.3333" width="2.66667" height="2.66667" fill="#E6E6AC"/>
<rect x="26.6666" y="16" width="2.66667" height="2.66667" fill="#E6E6AC"/>
<rect x="24" y="29.3333" width="2.66667" height="2.66667" fill="#E6E6AC"/>
<rect x="40" y="32" width="2.66667" height="2.66667" fill="#E6E6AC"/>
<rect x="45.3333" y="34.6667" width="2.66667" height="2.66667" fill="#E6E6AC"/>
<rect x="8" y="34.6667" width="2.66667" height="2.66667" fill="#E6E6AC"/>
<rect x="10.6666" y="34.6667" width="2.66667" height="2.66667" fill="#E6E6AC"/>
<rect x="18.6666" y="37.3333" width="2.66667" height="2.66667" fill="#00BF00"/>
<rect x="18.6666" y="40" width="2.66667" height="2.66667" fill="#00BF00"/>
<rect x="21.3333" y="40" width="2.66667" height="2.66667" fill="#00BF00"/>
<rect x="21.3333" y="42.6667" width="2.66667" height="2.66667" fill="#00BF00"/>
<rect x="21.3333" y="45.3333" width="2.66667" height="2.66667" fill="#00BF00"/>
<rect x="21.3333" y="48" width="2.66667" height="2.66667" fill="#00BF00"/>
<rect x="24" y="40" width="2.66667" height="2.66667" fill="#00BF00"/>
<rect x="24" y="42.6667" width="2.66667" height="2.66667" fill="#00BF00"/>
<rect x="24" y="45.3333" width="2.66667" height="2.66667" fill="#00BF00"/>
<rect x="24" y="48" width="2.66667" height="2.66667" fill="#00BF00"/>
<rect x="24" y="50.6667" width="2.66667" height="2.66667" fill="#00BF00"/>
<rect x="18.6666" y="56" width="2.66667" height="2.66667" fill="#00BF00"/>
<rect x="34.6666" y="56" width="2.66667" height="2.66667" fill="#00BF00"/>
<rect x="37.3333" y="56" width="2.66667" height="2.66667" fill="#00BF00"/>
<rect x="40" y="56" width="2.66667" height="2.66667" fill="#00BF00"/>
<rect x="42.6666" y="56" width="2.66667" height="2.66667" fill="#00BF00"/>
<rect x="18.6666" y="58.6667" width="2.66667" height="2.66667" fill="#00BF00"/>
<rect x="34.6666" y="58.6667" width="2.66667" height="2.66667" fill="#00BF00"/>
<rect x="37.3333" y="58.6667" width="2.66667" height="2.66667" fill="#00BF00"/>
<rect x="40" y="58.6667" width="2.66667" height="2.66667" fill="#00BF00"/>
<rect x="42.6666" y="58.6667" width="2.66667" height="2.66667" fill="#00BF00"/>
<rect x="45.3333" y="58.6667" width="2.66667" height="2.66667" fill="#00BF00"/>
<rect x="48" y="58.6667" width="2.66667" height="2.66667" fill="#00BF00"/>
<rect x="16" y="56" width="2.66667" height="2.66667" fill="#00BF00"/>
<rect x="16" y="58.6667" width="2.66667" height="2.66667" fill="#00BF00"/>
<rect x="13.3333" y="56" width="2.66667" height="2.66667" fill="#00BF00"/>
<rect x="13.3333" y="58.6667" width="2.66667" height="2.66667" fill="#00BF00"/>
<rect x="10.6666" y="56" width="2.66667" height="2.66667" fill="#00BF00"/>
<rect x="10.6666" y="58.6667" width="2.66667" height="2.66667" fill="#00BF00"/>
<rect x="8" y="58.6667" width="2.66667" height="2.66667" fill="#00BF00"/>
<rect x="5.33325" y="58.6667" width="2.66667" height="2.66667" fill="#00BF00"/>
<rect x="26.6666" y="40" width="2.66667" height="2.66667" fill="#00BF00"/>
<rect x="26.6666" y="42.6667" width="2.66667" height="2.66667" fill="#00BF00"/>
<rect x="26.6666" y="45.3333" width="2.66667" height="2.66667" fill="#00BF00"/>
<rect x="26.6666" y="48" width="2.66667" height="2.66667" fill="#00BF00"/>
<rect x="29.3333" y="40" width="2.66667" height="2.66667" fill="#00BF00"/>
<rect x="29.3333" y="42.6667" width="2.66667" height="2.66667" fill="#00BF00"/>
<rect x="29.3333" y="45.3333" width="2.66667" height="2.66667" fill="#00BF00"/>
<rect x="29.3333" y="48" width="2.66667" height="2.66667" fill="#00BF00"/>
<rect x="29.3333" y="50.6667" width="2.66667" height="2.66667" fill="#00BF00"/>
<rect x="32" y="40" width="2.66667" height="2.66667" fill="#00BF00"/>
<rect x="32" y="42.6667" width="2.66667" height="2.66667" fill="#00BF00"/>
<rect x="32" y="45.3333" width="2.66667" height="2.66667" fill="#00BF00"/>
<rect x="32" y="48" width="2.66667" height="2.66667" fill="#00BF00"/>
<rect x="34.6666" y="40" width="2.66667" height="2.66667" fill="#00BF00"/>
<rect x="24" y="37.3333" width="2.66667" height="2.66667" fill="#00BF00"/>
<rect x="29.3333" y="37.3333" width="2.66667" height="2.66667" fill="#00BF00"/>
<rect x="32" y="37.3333" width="2.66667" height="2.66667" fill="#00BF00"/>
<rect x="34.6666" y="37.3333" width="2.66667" height="2.66667" fill="#00BF00"/>
<rect x="42.6666" y="40" width="2.66667" height="2.66667" fill="#00BF00"/>
<rect x="45.3333" y="40" width="2.66667" height="2.66667" fill="#00BF00"/>
<rect x="45.3333" y="37.3333" width="2.66667" height="2.66667" fill="#00BF00"/>
<rect x="48" y="40" width="2.66667" height="2.66667" fill="#00BF00"/>
<rect x="48" y="37.3333" width="2.66667" height="2.66667" fill="#00BF00"/>
<rect x="48" y="34.6667" width="2.66667" height="2.66667" fill="#00BF00"/>
<rect x="42.6666" y="42.6667" width="2.66667" height="2.66667" fill="#00BF00"/>
<rect x="45.3333" y="42.6667" width="2.66667" height="2.66667" fill="#00BF00"/>
<rect x="48" y="42.6667" width="2.66667" height="2.66667" fill="#00BF00"/>
<rect x="5.33325" y="34.6667" width="2.66667" height="2.66667" fill="#00BF00"/>
<rect x="5.33325" y="37.3333" width="2.66667" height="2.66667" fill="#00BF00"/>
<rect x="8" y="37.3333" width="2.66667" height="2.66667" fill="#00BF00"/>
<rect x="8" y="40" width="2.66667" height="2.66667" fill="#00BF00"/>
<rect x="10.6666" y="40" width="2.66667" height="2.66667" fill="#00BF00"/>
<rect x="10.6666" y="42.6667" width="2.66667" height="2.66667" fill="#00BF00"/>
<rect x="8" y="42.6667" width="2.66667" height="2.66667" fill="#00BF00"/>
<rect x="5.33325" y="42.6667" width="2.66667" height="2.66667" fill="#00BF00"/>
<rect x="5.33325" y="40" width="2.66667" height="2.66667" fill="#00BF00"/>
<rect x="34.6666" y="53.3333" width="2.66667" height="2.66667" fill="#00FF00"/>
<rect x="18.6666" y="53.3333" width="2.66667" height="2.66667" fill="#00FF00"/>
<rect x="37.3333" y="53.3333" width="2.66667" height="2.66667" fill="#00FF00"/>
<rect x="21.3333" y="53.3333" width="2.66667" height="2.66667" fill="#00FF00"/>
<rect x="37.3333" y="50.6667" width="2.66667" height="2.66667" fill="#00FF00"/>
<rect x="21.3333" y="50.6667" width="2.66667" height="2.66667" fill="#00FF00"/>
<rect x="34.6666" y="50.6667" width="2.66667" height="2.66667" fill="#00FF00"/>
<rect x="18.6666" y="50.6667" width="2.66667" height="2.66667" fill="#00FF00"/>
<rect x="34.6666" y="48" width="2.66667" height="2.66667" fill="#00FF00"/>
<rect x="18.6666" y="48" width="2.66667" height="2.66667" fill="#00FF00"/>
<rect x="32" y="50.6667" width="2.66667" height="2.66667" fill="#00FF00"/>
<rect x="16" y="50.6667" width="2.66667" height="2.66667" fill="#00FF00"/>
<rect x="32" y="53.3333" width="2.66667" height="2.66667" fill="#00FF00"/>
<rect x="16" y="53.3333" width="2.66667" height="2.66667" fill="#00FF00"/>
<rect x="2.66663" y="32" width="2.66667" height="2.66667" fill="#FF4000"/>
<rect x="2.66663" y="29.3333" width="2.66667" height="2.66667" fill="#FF4000"/>
<rect x="5.33325" y="29.3333" width="2.66667" height="2.66667" fill="#FF4000"/>
<rect x="5.33325" y="26.6667" width="2.66667" height="2.66667" fill="#FF4000"/>
<rect x="8" y="26.6667" width="2.66667" height="2.66667" fill="#FF4000"/>
<rect x="8" y="24" width="2.66667" height="2.66667" fill="#FF4000"/>
<rect x="10.6666" y="21.3333" width="2.66667" height="2.66667" fill="#FF4000"/>
<rect x="10.6666" y="24" width="2.66667" height="2.66667" fill="#FF4000"/>
<rect x="10.6666" y="26.6667" width="2.66667" height="2.66667" fill="#FF4000"/>
<rect x="13.3333" y="26.6667" width="2.66667" height="2.66667" fill="#FF4000"/>
<rect x="13.3333" y="29.3333" width="2.66667" height="2.66667" fill="#FF4000"/>
<rect x="10.6666" y="29.3333" width="2.66667" height="2.66667" fill="#FF4000"/>
<rect x="16" y="29.3333" width="2.66667" height="2.66667" fill="#FF4000"/>
<rect x="16" y="32" width="2.66667" height="2.66667" fill="#FF4000"/>
<rect x="18.6666" y="32" width="2.66667" height="2.66667" fill="#FF4000"/>
<rect x="18.6666" y="34.6667" width="2.66667" height="2.66667" fill="#FF4000"/>
<rect x="21.3333" y="34.6667" width="2.66667" height="2.66667" fill="#FF4000"/>
<rect x="21.3333" y="32" width="2.66667" height="2.66667" fill="#FF4000"/>
<rect x="21.3333" y="29.3333" width="2.66667" height="2.66667" fill="#FF4000"/>
<rect x="18.6666" y="29.3333" width="2.66667" height="2.66667" fill="#FF4000"/>
<rect x="18.6666" y="26.6667" width="2.66667" height="2.66667" fill="#FF4000"/>
<rect x="16" y="26.6667" width="2.66667" height="2.66667" fill="#FF4000"/>
<rect x="16" y="24" width="2.66667" height="2.66667" fill="#FF4000"/>
<rect x="13.3333" y="24" width="2.66667" height="2.66667" fill="#FF4000"/>
<rect x="13.3333" y="21.3333" width="2.66667" height="2.66667" fill="#FF4000"/>
<rect x="16" y="21.3333" width="2.66667" height="2.66667" fill="#FF4000"/>
<rect x="16" y="18.6667" width="2.66667" height="2.66667" fill="#FF4000"/>
<rect x="18.6666" y="18.6667" width="2.66667" height="2.66667" fill="#FF4000"/>
<rect x="18.6666" y="16" width="2.66667" height="2.66667" fill="#FF4000"/>
<rect x="16" y="16" width="2.66667" height="2.66667" fill="#FF4000"/>
<rect x="16" y="13.3333" width="2.66667" height="2.66667" fill="#FF4000"/>
<rect x="16" y="10.6667" width="2.66667" height="2.66667" fill="#FF4000"/>
<rect x="18.6666" y="10.6667" width="2.66667" height="2.66667" fill="#FF4000"/>
<rect x="18.6666" y="8" width="2.66667" height="2.66667" fill="#FF4000"/>
<rect x="21.3333" y="8" width="2.66667" height="2.66667" fill="#FF4000"/>
<rect x="21.3333" y="5.33331" width="2.66667" height="2.66667" fill="#FF4000"/>
<rect x="24" y="5.33331" width="2.66667" height="2.66667" fill="#FF4000"/>
<rect x="26.6666" y="5.33331" width="2.66667" height="2.66667" fill="#FF4000"/>
<rect x="26.6666" y="2.66669" width="2.66667" height="2.66667" fill="#FF4000"/>
<rect x="29.3333" y="2.66669" width="2.66667" height="2.66667" fill="#FF4000"/>
<rect x="29.3333" y="5.33331" width="2.66667" height="2.66667" fill="#FF4000"/>
<rect x="29.3333" y="8" width="2.66667" height="2.66667" fill="#FF4000"/>
<rect x="32" y="8" width="2.66667" height="2.66667" fill="#FF4000"/>
<rect x="32" y="5.33331" width="2.66667" height="2.66667" fill="#FF4000"/>
<rect x="32" y="2.66669" width="2.66667" height="2.66667" fill="#FF4000"/>
<rect x="34.6666" y="2.66669" width="2.66667" height="2.66667" fill="#FF4000"/>
<rect x="37.3333" y="2.66669" width="2.66667" height="2.66667" fill="#FF4000"/>
<rect x="37.3333" y="5.33331" width="2.66667" height="2.66667" fill="#FF4000"/>
<rect x="40" y="5.33331" width="2.66667" height="2.66667" fill="#FF4000"/>
<rect x="34.6666" y="5.33331" width="2.66667" height="2.66667" fill="#FF4000"/>
<rect x="34.6666" y="8" width="2.66667" height="2.66667" fill="#FF4000"/>
<rect x="37.3333" y="8" width="2.66667" height="2.66667" fill="#FF4000"/>
<rect x="40" y="8" width="2.66667" height="2.66667" fill="#FF4000"/>
<rect x="42.6666" y="8" width="2.66667" height="2.66667" fill="#FF4000"/>
<rect x="37.3333" y="10.6667" width="2.66667" height="2.66667" fill="#FF4000"/>
<rect x="40" y="10.6667" width="2.66667" height="2.66667" fill="#FF4000"/>
<rect x="42.6666" y="10.6667" width="2.66667" height="2.66667" fill="#FF4000"/>
<rect x="45.3333" y="10.6667" width="2.66667" height="2.66667" fill="#FF4000"/>
<rect x="34.6666" y="10.6667" width="2.66667" height="2.66667" fill="#FF4000"/>
<rect x="34.6666" y="13.3333" width="2.66667" height="2.66667" fill="#FF4000"/>
<rect x="37.3333" y="13.3333" width="2.66667" height="2.66667" fill="#FF4000"/>
<rect x="40" y="13.3333" width="2.66667" height="2.66667" fill="#FF4000"/>
<rect x="42.6666" y="13.3333" width="2.66667" height="2.66667" fill="#FF4000"/>
<rect x="45.3333" y="13.3333" width="2.66667" height="2.66667" fill="#FF4000"/>
<rect x="37.3333" y="16" width="2.66667" height="2.66667" fill="#FF4000"/>
<rect x="40" y="16" width="2.66667" height="2.66667" fill="#FF4000"/>
<rect x="42.6666" y="16" width="2.66667" height="2.66667" fill="#FF4000"/>
<rect x="45.3333" y="16" width="2.66667" height="2.66667" fill="#FF4000"/>
<rect x="48" y="16" width="2.66667" height="2.66667" fill="#FF4000"/>
<rect x="37.3333" y="18.6667" width="2.66667" height="2.66667" fill="#FF4000"/>
<rect x="40" y="18.6667" width="2.66667" height="2.66667" fill="#FF4000"/>
<rect x="40" y="21.3333" width="2.66667" height="2.66667" fill="#FF4000"/>
<rect x="42.6666" y="18.6667" width="2.66667" height="2.66667" fill="#FF4000"/>
<rect x="42.6666" y="21.3333" width="2.66667" height="2.66667" fill="#FF4000"/>
<rect x="42.6666" y="24" width="2.66667" height="2.66667" fill="#FF4000"/>
<rect x="42.6666" y="26.6667" width="2.66667" height="2.66667" fill="#FF4000"/>
<rect x="42.6666" y="29.3333" width="2.66667" height="2.66667" fill="#FF4000"/>
<rect x="42.6666" y="32" width="2.66667" height="2.66667" fill="#FF4000"/>
<rect x="42.6666" y="34.6667" width="2.66667" height="2.66667" fill="#FF4000"/>
<rect x="40" y="34.6667" width="2.66667" height="2.66667" fill="#FF4000"/>
<rect x="40" y="37.3333" width="2.66667" height="2.66667" fill="#FF4000"/>
<rect x="45.3333" y="18.6667" width="2.66667" height="2.66667" fill="#FF4000"/>
<rect x="45.3333" y="21.3333" width="2.66667" height="2.66667" fill="#FF4000"/>
<rect x="45.3333" y="24" width="2.66667" height="2.66667" fill="#FF4000"/>
<rect x="45.3333" y="26.6667" width="2.66667" height="2.66667" fill="#FF4000"/>
<rect x="45.3333" y="29.3333" width="2.66667" height="2.66667" fill="#FF4000"/>
<rect x="45.3333" y="32" width="2.66667" height="2.66667" fill="#FF4000"/>
<rect x="48" y="18.6667" width="2.66667" height="2.66667" fill="#FF4000"/>
<rect x="48" y="21.3333" width="2.66667" height="2.66667" fill="#FF4000"/>
<rect x="48" y="24" width="2.66667" height="2.66667" fill="#FF4000"/>
<rect x="48" y="26.6667" width="2.66667" height="2.66667" fill="#FF4000"/>
<rect x="34.6666" y="16" width="2.66667" height="2.66667" fill="#FF4000"/>
<rect x="32" y="10.6667" width="2.66667" height="2.66667" fill="#FF4000"/>
<rect x="24" y="8" width="2.66667" height="2.66667" fill="#FF4000"/>
<rect x="26.6666" y="8" width="2.66667" height="2.66667" fill="#FF4000"/>
<rect x="24" y="10.6667" width="2.66667" height="2.66667" fill="#FF4000"/>
<rect x="21.3333" y="10.6667" width="2.66667" height="2.66667" fill="#FF4000"/>
<rect x="21.3333" y="13.3333" width="2.66667" height="2.66667" fill="#FF4000"/>
<rect x="18.6666" y="13.3333" width="2.66667" height="2.66667" fill="#FF4000"/>
<rect x="13.3333" y="16" width="2.66667" height="2.66667" fill="#FF4000"/>
<rect x="13.3333" y="18.6667" width="2.66667" height="2.66667" fill="#FF4000"/>
<rect x="24" y="34.6667" width="2.66667" height="2.66667" fill="#FF4000"/>
<rect x="21.3333" y="37.3333" width="2.66667" height="2.66667" fill="#FF4000"/>
</svg>
