<svg width="54" height="64" viewBox="0 0 54 64" fill="none" xmlns="http://www.w3.org/2000/svg">
<rect x="35.84" y="20.48" width="2.56" height="2.56" fill="white"/>
<rect x="35.84" y="23.04" width="2.56" height="2.56" fill="white"/>
<rect x="35.84" y="25.6" width="2.56" height="2.56" fill="#8000FF"/>
<rect x="20.48" y="35.84" width="2.56" height="2.56" fill="#008000"/>
<rect x="30.72" y="53.76" width="2.56" height="2.56" fill="#262626"/>
<rect x="23.04" y="51.2" width="2.56" height="2.56" fill="#262626"/>
<rect x="20.48" y="51.2" width="2.56" height="2.56" fill="#262626"/>
<rect x="17.92" y="51.2" width="2.56" height="2.56" fill="#262626"/>
<rect x="15.36" y="51.2" width="2.56" height="2.56" fill="#262626"/>
<rect x="15.36" y="53.76" width="2.56" height="2.56" fill="#262626"/>
<rect x="17.92" y="53.76" width="2.56" height="2.56" fill="#262626"/>
<rect x="17.92" y="56.32" width="2.56" height="2.56" fill="#262626"/>
<rect x="15.36" y="56.32" width="2.56" height="2.56" fill="#262626"/>
<rect x="20.48" y="53.76" width="2.56" height="2.56" fill="#262626"/>
<rect x="12.8" y="53.76" width="2.56" height="2.56" fill="#262626"/>
<rect x="12.8" y="51.2" width="2.56" height="2.56" fill="#262626"/>
<rect x="15.36" y="48.64" width="2.56" height="2.56" fill="#262626"/>
<rect x="38.4" y="53.76" width="2.56" height="2.56" fill="#262626"/>
<rect x="38.4" y="51.2" width="2.56" height="2.56" fill="#262626"/>
<rect x="35.84" y="51.2" width="2.56" height="2.56" fill="#262626"/>
<rect x="35.84" y="48.64" width="2.56" height="2.56" fill="#262626"/>
<rect x="17.92" y="43.52" width="2.56" height="2.56" fill="#00BF00"/>
<rect x="17.92" y="38.4" width="2.56" height="2.56" fill="#00BF00"/>
<rect x="17.92" y="40.96" width="2.56" height="2.56" fill="#00BF00"/>
<rect x="20.48" y="40.96" width="2.56" height="2.56" fill="#00BF00"/>
<rect x="20.48" y="43.52" width="2.56" height="2.56" fill="#00BF00"/>
<rect x="5.12" y="35.84" width="2.56" height="2.56" fill="#00BF00"/>
<rect x="7.68005" y="35.84" width="2.56" height="2.56" fill="#00BF00"/>
<rect x="7.68005" y="33.28" width="2.56" height="2.56" fill="#00BF00"/>
<rect x="10.24" y="35.84" width="2.56" height="2.56" fill="#00BF00"/>
<rect x="10.24" y="33.28" width="2.56" height="2.56" fill="#00BF00"/>
<rect x="12.8" y="35.84" width="2.56" height="2.56" fill="#00BF00"/>
<rect x="12.8" y="33.28" width="2.56" height="2.56" fill="#00BF00"/>
<rect x="12.8" y="30.72" width="2.56" height="2.56" fill="#00BF00"/>
<rect x="10.24" y="30.72" width="2.56" height="2.56" fill="#00BF00"/>
<rect x="15.36" y="30.72" width="2.56" height="2.56" fill="#00BF00"/>
<rect x="17.92" y="30.72" width="2.56" height="2.56" fill="#008000"/>
<rect x="17.92" y="33.28" width="2.56" height="2.56" fill="#008000"/>
<rect x="15.36" y="33.28" width="2.56" height="2.56" fill="#00BF00"/>
<rect x="33.28" y="56.32" width="2.56" height="2.56" fill="#262626"/>
<rect x="35.84" y="56.32" width="2.56" height="2.56" fill="#262626"/>
<rect x="25.6" y="40.96" width="2.56" height="2.56" fill="#8000FF"/>
<rect x="25.6" y="43.52" width="2.56" height="2.56" fill="#008000"/>
<rect x="25.6" y="38.4" width="2.56" height="2.56" fill="#8000FF"/>
<rect x="25.6" y="35.84" width="2.56" height="2.56" fill="#8000FF"/>
<rect x="33.28" y="53.76" width="2.56" height="2.56" fill="#262626"/>
<rect x="35.84" y="53.76" width="2.56" height="2.56" fill="#262626"/>
<rect x="33.28" y="51.2" width="2.56" height="2.56" fill="#262626"/>
<rect x="33.28" y="48.64" width="2.56" height="2.56" fill="#008000"/>
<rect x="30.72" y="48.64" width="2.56" height="2.56" fill="#008000"/>
<rect x="28.16" y="48.64" width="2.56" height="2.56" fill="#008000"/>
<rect x="23.04" y="48.64" width="2.56" height="2.56" fill="#008000"/>
<rect x="20.48" y="48.64" width="2.56" height="2.56" fill="#008000"/>
<rect x="17.92" y="48.64" width="2.56" height="2.56" fill="#008000"/>
<rect x="17.92" y="46.08" width="2.56" height="2.56" fill="#00BF00"/>
<rect x="20.48" y="46.08" width="2.56" height="2.56" fill="#00BF00"/>
<rect x="23.04" y="46.08" width="2.56" height="2.56" fill="#00BF00"/>
<rect x="25.6" y="46.08" width="2.56" height="2.56" fill="#008000"/>
<rect x="28.16" y="46.08" width="2.56" height="2.56" fill="#00BF00"/>
<rect x="30.72" y="46.08" width="2.56" height="2.56" fill="#00BF00"/>
<rect x="33.28" y="46.08" width="2.56" height="2.56" fill="#00BF00"/>
<rect x="30.72" y="51.2" width="2.56" height="2.56" fill="#262626"/>
<rect x="28.16" y="51.2" width="2.56" height="2.56" fill="#262626"/>
<rect x="25.6" y="48.64" width="2.56" height="2.56" fill="#262626"/>
<rect x="20.48" y="33.28" width="2.56" height="2.56" fill="white"/>
<rect x="20.48" y="38.4" width="2.56" height="2.56" fill="#008000"/>
<rect x="17.92" y="35.84" width="2.56" height="2.56" fill="#00BF00"/>
<rect x="33.28" y="30.72" width="2.56" height="2.56" fill="#FEBE8E"/>
<rect x="33.28" y="25.6" width="2.56" height="2.56" fill="#FEBE8E"/>
<rect x="33.28" y="23.04" width="2.56" height="2.56" fill="#8000FF"/>
<rect x="33.28" y="20.48" width="2.56" height="2.56" fill="#8000FF"/>
<rect x="35.84" y="28.16" width="2.56" height="2.56" fill="#FEBE8E"/>
<rect x="33.28" y="28.16" width="2.56" height="2.56" fill="#FEBE8E"/>
<rect x="30.72" y="28.16" width="2.56" height="2.56" fill="#FEBE8E"/>
<rect x="38.4" y="25.6" width="2.56" height="2.56" fill="#8000FF"/>
<rect x="35.84" y="12.8" width="2.56" height="2.56" fill="#8000FF"/>
<rect x="35.84" y="15.36" width="2.56" height="2.56" fill="#00BF00"/>
<rect x="33.28" y="15.36" width="2.56" height="2.56" fill="#00BF00"/>
<rect x="33.28" y="17.92" width="2.56" height="2.56" fill="#FEBE8E"/>
<rect x="38.4" y="15.36" width="2.56" height="2.56" fill="#00BF00"/>
<rect x="38.4" y="12.8" width="2.56" height="2.56" fill="#8000FF"/>
<rect x="40.96" y="12.8" width="2.56" height="2.56" fill="#8000FF"/>
<rect x="40.96" y="15.36" width="2.56" height="2.56" fill="#00BF00"/>
<rect x="43.52" y="15.36" width="2.56" height="2.56" fill="#00BF00"/>
<rect x="35.84" y="17.92" width="2.56" height="2.56" fill="#8000FF"/>
<rect x="38.4" y="17.92" width="2.56" height="2.56" fill="#8000FF"/>
<rect x="38.4" y="20.48" width="2.56" height="2.56" fill="white"/>
<rect x="38.4" y="23.04" width="2.56" height="2.56" fill="white"/>
<rect x="23.04" y="25.6" width="2.56" height="2.56" fill="black"/>
<rect x="25.6" y="15.36" width="2.56" height="2.56" fill="#00BF00"/>
<rect x="30.72" y="17.92" width="2.56" height="2.56" fill="#8000FF"/>
<rect x="30.72" y="30.72" width="2.56" height="2.56" fill="#FEBE8E"/>
<rect x="28.16" y="30.72" width="2.56" height="2.56" fill="#FEBE8E"/>
<rect x="25.6" y="30.72" width="2.56" height="2.56" fill="#FEBE8E"/>
<rect x="25.6" y="25.6" width="2.56" height="2.56" fill="#FEBE8E"/>
<rect x="23.04" y="28.16" width="2.56" height="2.56" fill="#FEBE8E"/>
<rect x="20.48" y="28.16" width="2.56" height="2.56" fill="#FEBE8E"/>
<rect x="20.48" y="25.6" width="2.56" height="2.56" fill="#FEBE8E"/>
<rect x="17.92" y="25.6" width="2.56" height="2.56" fill="#FEBE8E"/>
<rect x="20.48" y="23.04" width="2.56" height="2.56" fill="#FEBE8E"/>
<rect x="23.04" y="23.04" width="2.56" height="2.56" fill="#FEBE8E"/>
<rect x="23.04" y="20.48" width="2.56" height="2.56" fill="#FEBE8E"/>
<rect x="28.16" y="15.36" width="2.56" height="2.56" fill="#00BF00"/>
<rect x="30.72" y="15.36" width="2.56" height="2.56" fill="#00BF00"/>
<rect x="23.04" y="30.72" width="2.56" height="2.56" fill="#FEBE8E"/>
<rect x="23.04" y="17.92" width="2.56" height="2.56" fill="#FEBE8E"/>
<rect x="17.92" y="20.48" width="2.56" height="2.56" fill="#FEBE8E"/>
<rect x="17.92" y="23.04" width="2.56" height="2.56" fill="#FEBE8E"/>
<rect x="40.96" y="40.96" width="2.56" height="2.56" fill="#8000FF"/>
<rect x="43.52" y="40.96" width="2.56" height="2.56" fill="#8000FF"/>
<rect x="46.08" y="40.96" width="2.56" height="2.56" fill="#8000FF"/>
<rect x="40.96" y="43.52" width="2.56" height="2.56" fill="#8000FF"/>
<rect x="43.52" y="43.52" width="2.56" height="2.56" fill="#8000FF"/>
<rect x="46.08" y="43.52" width="2.56" height="2.56" fill="#8000FF"/>
<rect x="7.68005" y="40.96" width="2.56" height="2.56" fill="#7F00FE"/>
<rect x="10.24" y="40.96" width="2.56" height="2.56" fill="#7F00FE"/>
<rect x="10.24" y="43.52" width="2.56" height="2.56" fill="#7F00FE"/>
<rect x="7.68005" y="43.52" width="2.56" height="2.56" fill="#7F00FE"/>
<rect x="5.12" y="43.52" width="2.56" height="2.56" fill="#7F00FE"/>
<rect x="5.12" y="40.96" width="2.56" height="2.56" fill="#7F00FE"/>
<rect x="17.92" y="17.92" width="2.56" height="2.56" fill="#FEBE8E"/>
<rect x="23.04" y="43.52" width="2.56" height="2.56" fill="#00BF00"/>
<rect x="28.16" y="43.52" width="2.56" height="2.56" fill="#00BF00"/>
<rect x="28.16" y="38.4" width="2.56" height="2.56" fill="white"/>
<rect x="40.96" y="7.67999" width="2.56" height="2.56" fill="white"/>
<rect x="28.16" y="40.96" width="2.56" height="2.56" fill="#008000"/>
<rect x="28.16" y="35.84" width="2.56" height="2.56" fill="white"/>
<rect x="38.4" y="7.67999" width="2.56" height="2.56" fill="#00BF00"/>
<rect x="23.04" y="40.96" width="2.56" height="2.56" fill="#008000"/>
<rect x="23.04" y="38.4" width="2.56" height="2.56" fill="white"/>
<rect x="43.52" y="38.4" width="2.56" height="2.56" fill="white"/>
<rect x="46.08" y="38.4" width="2.56" height="2.56" fill="white"/>
<rect x="5.12" y="38.4" width="2.56" height="2.56" fill="white"/>
<rect x="7.68005" y="38.4" width="2.56" height="2.56" fill="white"/>
<rect x="30.72" y="25.6" width="2.56" height="2.56" fill="#8000FF"/>
<rect x="28.16" y="25.6" width="2.56" height="2.56" fill="#8000FF"/>
<rect x="25.6" y="23.04" width="2.56" height="2.56" fill="#8000FF"/>
<rect x="25.6" y="20.48" width="2.56" height="2.56" fill="#8000FF"/>
<rect x="23.04" y="35.84" width="2.56" height="2.56" fill="white"/>
<rect x="38.4" y="10.24" width="2.56" height="2.56" fill="#00BF00"/>
<rect x="28.16" y="7.67999" width="2.56" height="2.56" fill="#00BF00"/>
<rect x="30.72" y="10.24" width="2.56" height="2.56" fill="#00BF00"/>
<rect x="30.72" y="7.67999" width="2.56" height="2.56" fill="#00BF00"/>
<rect x="33.28" y="7.67999" width="2.56" height="2.56" fill="#00BF00"/>
<rect x="35.84" y="7.67999" width="2.56" height="2.56" fill="#00BF00"/>
<rect x="33.28" y="10.24" width="2.56" height="2.56" fill="#00BF00"/>
<rect x="35.84" y="10.24" width="2.56" height="2.56" fill="#00BF00"/>
<rect x="33.28" y="12.8" width="2.56" height="2.56" fill="#8000FF"/>
<rect x="33.28" y="43.52" width="2.56" height="2.56" fill="#00BF00"/>
<rect x="30.72" y="40.96" width="2.56" height="2.56" fill="#00BF00"/>
<rect x="30.72" y="43.52" width="2.56" height="2.56" fill="#00BF00"/>
<rect x="30.72" y="38.4" width="2.56" height="2.56" fill="#008000"/>
<rect x="33.28" y="40.96" width="2.56" height="2.56" fill="#00BF00"/>
<rect x="33.28" y="38.4" width="2.56" height="2.56" fill="#00BF00"/>
<rect x="33.28" y="35.84" width="2.56" height="2.56" fill="#00BF00"/>
<rect x="43.52" y="35.84" width="2.56" height="2.56" fill="#00BF00"/>
<rect x="46.08" y="35.84" width="2.56" height="2.56" fill="#00BF00"/>
<rect x="40.96" y="30.72" width="2.56" height="2.56" fill="#00BF00"/>
<rect x="40.96" y="33.28" width="2.56" height="2.56" fill="#00BF00"/>
<rect x="38.4" y="33.28" width="2.56" height="2.56" fill="#00BF00"/>
<rect x="38.4" y="30.72" width="2.56" height="2.56" fill="#00BF00"/>
<rect x="35.84" y="33.28" width="2.56" height="2.56" fill="#00BF00"/>
<rect x="40.96" y="35.84" width="2.56" height="2.56" fill="#00BF00"/>
<rect x="38.4" y="35.84" width="2.56" height="2.56" fill="#00BF00"/>
<rect x="43.52" y="33.28" width="2.56" height="2.56" fill="#00BF00"/>
<rect x="30.72" y="35.84" width="2.56" height="2.56" fill="#008000"/>
<rect x="15.36" y="23.04" width="2.56" height="2.56" fill="#3E1E09"/>
<rect x="20.48" y="17.92" width="2.56" height="2.56" fill="#3E1E09"/>
<rect x="23.04" y="15.36" width="2.56" height="2.56" fill="#00BF00"/>
<rect x="25.6" y="12.8" width="2.56" height="2.56" fill="#8000FF"/>
<rect x="28.16" y="12.8" width="2.56" height="2.56" fill="#8000FF"/>
<rect x="28.16" y="10.24" width="2.56" height="2.56" fill="#00BF00"/>
<rect x="20.48" y="20.48" width="2.56" height="2.56" fill="#3E1E09"/>
<rect x="15.36" y="20.48" width="2.56" height="2.56" fill="#3E1E09"/>
<rect x="15.36" y="17.92" width="2.56" height="2.56" fill="#3E1E09"/>
<rect x="30.72" y="12.8" width="2.56" height="2.56" fill="#8000FF"/>
<rect x="25.6" y="10.24" width="2.56" height="2.56" fill="#00BF00"/>
<rect x="23.04" y="12.8" width="2.56" height="2.56" fill="#8000FF"/>
<rect x="20.48" y="15.36" width="2.56" height="2.56" fill="#00BF00"/>
<rect x="15.36" y="15.36" width="2.56" height="2.56" fill="#00BF00"/>
<rect x="12.8" y="15.36" width="2.56" height="2.56" fill="#00BF00"/>
<rect x="12.8" y="15.36" width="2.56" height="2.56" fill="#00BF00"/>
<rect x="10.24" y="15.36" width="2.56" height="2.56" fill="#00BF00"/>
<rect x="17.92" y="12.8" width="2.56" height="2.56" fill="#8000FF"/>
<rect x="17.92" y="10.24" width="2.56" height="2.56" fill="#00BF00"/>
<rect x="15.36" y="12.8" width="2.56" height="2.56" fill="#8000FF"/>
<rect x="12.8" y="12.8" width="2.56" height="2.56" fill="#8000FF"/>
<rect x="15.36" y="10.24" width="2.56" height="2.56" fill="#00BF00"/>
<rect x="20.48" y="10.24" width="2.56" height="2.56" fill="#00BF00"/>
<rect x="20.48" y="7.67999" width="2.56" height="2.56" fill="#00BF00"/>
<rect x="17.92" y="7.67999" width="2.56" height="2.56" fill="#00BF00"/>
<rect x="15.36" y="7.67999" width="2.56" height="2.56" fill="#00BF00"/>
<rect x="23.04" y="7.67999" width="2.56" height="2.56" fill="#00BF00"/>
<rect x="25.6" y="7.67999" width="2.56" height="2.56" fill="#00BF00"/>
<rect x="38.4" y="5.12" width="2.56" height="2.56" fill="#00BF00"/>
<rect x="28.16" y="5.12" width="2.56" height="2.56" fill="#00BF00"/>
<rect x="30.72" y="5.12" width="2.56" height="2.56" fill="#00BF00"/>
<rect x="33.28" y="5.12" width="2.56" height="2.56" fill="#00BF00"/>
<rect x="35.84" y="5.12" width="2.56" height="2.56" fill="#00BF00"/>
<rect x="20.48" y="5.12" width="2.56" height="2.56" fill="#00BF00"/>
<rect x="17.92" y="5.12" width="2.56" height="2.56" fill="#00BF00"/>
<rect x="15.36" y="5.12" width="2.56" height="2.56" fill="#00BF00"/>
<rect x="23.04" y="5.12" width="2.56" height="2.56" fill="#00BF00"/>
<rect x="25.6" y="5.12" width="2.56" height="2.56" fill="#00BF00"/>
<rect x="28.16" y="2.56" width="2.56" height="2.56" fill="#00BF00"/>
<rect x="30.72" y="2.56" width="2.56" height="2.56" fill="#00BF00"/>
<rect x="33.28" y="2.56" width="2.56" height="2.56" fill="#00BF00"/>
<rect x="35.84" y="2.56" width="2.56" height="2.56" fill="#00BF00"/>
<rect x="20.48" y="2.56" width="2.56" height="2.56" fill="#00BF00"/>
<rect x="17.92" y="2.56" width="2.56" height="2.56" fill="#00BF00"/>
<rect x="23.04" y="2.56" width="2.56" height="2.56" fill="#00BF00"/>
<rect x="25.6" y="2.56" width="2.56" height="2.56" fill="#00BF00"/>
<rect x="23.04" y="10.24" width="2.56" height="2.56" fill="#00BF00"/>
<rect x="20.48" y="12.8" width="2.56" height="2.56" fill="#8000FF"/>
<rect x="17.92" y="15.36" width="2.56" height="2.56" fill="#00BF00"/>
<rect x="28.16" y="28.16" width="2.56" height="2.56" fill="black"/>
<rect x="25.6" y="28.16" width="2.56" height="2.56" fill="black"/>
<rect y="58.88" width="2.56" height="2.56" fill="black"/>
<rect y="61.44" width="2.56" height="2.56" fill="black"/>
<rect x="2.56006" y="61.44" width="2.56" height="2.56" fill="black"/>
<rect x="5.12" y="61.44" width="2.56" height="2.56" fill="black"/>
<rect x="7.68005" y="61.44" width="2.56" height="2.56" fill="black"/>
<rect x="10.24" y="61.44" width="2.56" height="2.56" fill="black"/>
<rect x="12.8" y="61.44" width="2.56" height="2.56" fill="black"/>
<rect x="15.36" y="61.44" width="2.56" height="2.56" fill="black"/>
<rect x="17.92" y="61.44" width="2.56" height="2.56" fill="black"/>
<rect x="20.48" y="61.44" width="2.56" height="2.56" fill="black"/>
<rect x="20.48" y="58.88" width="2.56" height="2.56" fill="black"/>
<rect x="30.72" y="58.88" width="2.56" height="2.56" fill="black"/>
<rect x="20.48" y="56.32" width="2.56" height="2.56" fill="black"/>
<rect x="23.04" y="53.76" width="2.56" height="2.56" fill="black"/>
<rect x="25.6" y="51.2" width="2.56" height="2.56" fill="black"/>
<rect x="28.16" y="53.76" width="2.56" height="2.56" fill="black"/>
<rect x="30.72" y="56.32" width="2.56" height="2.56" fill="black"/>
<rect x="30.72" y="61.44" width="2.56" height="2.56" fill="black"/>
<rect x="33.28" y="61.44" width="2.56" height="2.56" fill="black"/>
<rect x="35.84" y="61.44" width="2.56" height="2.56" fill="black"/>
<rect x="38.4" y="61.44" width="2.56" height="2.56" fill="black"/>
<rect x="40.96" y="61.44" width="2.56" height="2.56" fill="black"/>
<rect x="43.52" y="61.44" width="2.56" height="2.56" fill="black"/>
<rect x="46.08" y="61.44" width="2.56" height="2.56" fill="black"/>
<rect x="48.64" y="61.44" width="2.56" height="2.56" fill="black"/>
<rect x="2.56006" y="58.88" width="2.56" height="2.56" fill="#8000FF"/>
<rect x="48.64" y="58.88" width="2.56" height="2.56" fill="#8000FF"/>
<rect x="17.92" y="58.88" width="2.56" height="2.56" fill="#8000FF"/>
<rect x="33.28" y="58.88" width="2.56" height="2.56" fill="#8000FF"/>
<rect x="35.84" y="58.88" width="2.56" height="2.56" fill="#8000FF"/>
<rect x="38.4" y="58.88" width="2.56" height="2.56" fill="#8000FF"/>
<rect x="40.96" y="58.88" width="2.56" height="2.56" fill="#8000FF"/>
<rect x="43.52" y="58.88" width="2.56" height="2.56" fill="#8000FF"/>
<rect x="46.08" y="58.88" width="2.56" height="2.56" fill="#8000FF"/>
<rect x="15.36" y="58.88" width="2.56" height="2.56" fill="#8000FF"/>
<rect x="12.8" y="58.88" width="2.56" height="2.56" fill="#8000FF"/>
<rect x="10.24" y="58.88" width="2.56" height="2.56" fill="#8000FF"/>
<rect x="7.68005" y="58.88" width="2.56" height="2.56" fill="#8000FF"/>
<rect x="5.12" y="58.88" width="2.56" height="2.56" fill="#8000FF"/>
<rect x="7.68005" y="56.32" width="2.56" height="2.56" fill="#8000FF"/>
<rect x="43.52" y="56.32" width="2.56" height="2.56" fill="#8000FF"/>
<rect x="38.4" y="56.32" width="2.56" height="2.56" fill="#8000FF"/>
<rect x="40.96" y="56.32" width="2.56" height="2.56" fill="#8000FF"/>
<rect x="12.8" y="56.32" width="2.56" height="2.56" fill="#8000FF"/>
<rect x="10.24" y="56.32" width="2.56" height="2.56" fill="#8000FF"/>
<rect x="51.2" y="61.44" width="2.56" height="2.56" fill="black"/>
<rect x="12.8" y="20.48" width="2.56" height="2.56" fill="black"/>
<rect x="12.8" y="23.04" width="2.56" height="2.56" fill="black"/>
<rect x="12.8" y="17.92" width="2.56" height="2.56" fill="black"/>
<rect x="10.24" y="17.92" width="2.56" height="2.56" fill="black"/>
<rect x="7.68005" y="15.36" width="2.56" height="2.56" fill="black"/>
<rect x="10.24" y="12.8" width="2.56" height="2.56" fill="black"/>
<rect x="12.8" y="10.24" width="2.56" height="2.56" fill="black"/>
<rect x="12.8" y="7.67999" width="2.56" height="2.56" fill="black"/>
<rect x="12.8" y="5.12" width="2.56" height="2.56" fill="black"/>
<rect x="17.92" width="2.56" height="2.56" fill="black"/>
<rect x="15.36" y="2.56" width="2.56" height="2.56" fill="black"/>
<rect x="20.48" width="2.56" height="2.56" fill="black"/>
<rect x="30.72" width="2.56" height="2.56" fill="black"/>
<rect x="33.28" width="2.56" height="2.56" fill="black"/>
<rect x="40.96" y="17.92" width="2.56" height="2.56" fill="black"/>
<rect x="43.52" y="17.92" width="2.56" height="2.56" fill="black"/>
<rect x="40.96" y="7.67999" width="2.56" height="2.56" fill="black"/>
<rect x="40.96" y="10.24" width="2.56" height="2.56" fill="black"/>
<rect x="43.52" y="12.8" width="2.56" height="2.56" fill="black"/>
<rect x="46.08" y="15.36" width="2.56" height="2.56" fill="black"/>
<rect x="40.96" y="20.48" width="2.56" height="2.56" fill="black"/>
<rect x="40.96" y="23.04" width="2.56" height="2.56" fill="black"/>
<rect x="40.96" y="25.6" width="2.56" height="2.56" fill="black"/>
<rect x="40.96" y="28.16" width="2.56" height="2.56" fill="black"/>
<rect x="43.52" y="30.72" width="2.56" height="2.56" fill="black"/>
<rect x="46.08" y="33.28" width="2.56" height="2.56" fill="black"/>
<rect x="48.64" y="35.84" width="2.56" height="2.56" fill="black"/>
<rect x="48.64" y="38.4" width="2.56" height="2.56" fill="black"/>
<rect x="48.64" y="40.96" width="2.56" height="2.56" fill="black"/>
<rect x="48.64" y="43.52" width="2.56" height="2.56" fill="black"/>
<rect x="46.08" y="46.08" width="2.56" height="2.56" fill="black"/>
<rect x="43.52" y="46.08" width="2.56" height="2.56" fill="black"/>
<rect x="40.96" y="46.08" width="2.56" height="2.56" fill="black"/>
<rect x="38.4" y="43.52" width="2.56" height="2.56" fill="black"/>
<rect x="38.4" y="40.96" width="2.56" height="2.56" fill="black"/>
<rect x="2.56006" y="35.84" width="2.56" height="2.56" fill="black"/>
<rect x="2.56006" y="38.4" width="2.56" height="2.56" fill="black"/>
<rect x="2.56006" y="40.96" width="2.56" height="2.56" fill="black"/>
<rect x="2.56006" y="43.52" width="2.56" height="2.56" fill="black"/>
<rect x="5.12" y="46.08" width="2.56" height="2.56" fill="black"/>
<rect x="7.68005" y="46.08" width="2.56" height="2.56" fill="black"/>
<rect x="10.24" y="46.08" width="2.56" height="2.56" fill="black"/>
<rect x="12.8" y="43.52" width="2.56" height="2.56" fill="black"/>
<rect x="12.8" y="40.96" width="2.56" height="2.56" fill="black"/>
<rect x="12.8" y="38.4" width="2.56" height="2.56" fill="black"/>
<rect x="15.36" y="38.4" width="2.56" height="2.56" fill="black"/>
<rect x="15.36" y="35.84" width="2.56" height="2.56" fill="black"/>
<rect x="15.36" y="40.96" width="2.56" height="2.56" fill="black"/>
<rect x="5.12" y="56.32" width="2.56" height="2.56" fill="black"/>
<rect x="7.68005" y="53.76" width="2.56" height="2.56" fill="black"/>
<rect x="10.24" y="53.76" width="2.56" height="2.56" fill="black"/>
<rect x="10.24" y="51.2" width="2.56" height="2.56" fill="black"/>
<rect x="12.8" y="48.64" width="2.56" height="2.56" fill="black"/>
<rect x="15.36" y="46.08" width="2.56" height="2.56" fill="black"/>
<rect x="15.36" y="43.52" width="2.56" height="2.56" fill="black"/>
<rect x="2.56006" y="56.32" width="2.56" height="2.56" fill="black"/>
<rect x="46.08" y="56.32" width="2.56" height="2.56" fill="black"/>
<rect x="48.64" y="56.32" width="2.56" height="2.56" fill="black"/>
<rect x="40.96" y="53.76" width="2.56" height="2.56" fill="black"/>
<rect x="40.96" y="51.2" width="2.56" height="2.56" fill="black"/>
<rect x="38.4" y="48.64" width="2.56" height="2.56" fill="black"/>
<rect x="35.84" y="43.52" width="2.56" height="2.56" fill="black"/>
<rect x="35.84" y="46.08" width="2.56" height="2.56" fill="black"/>
<rect x="43.52" y="53.76" width="2.56" height="2.56" fill="black"/>
<rect x="35.84" y="40.96" width="2.56" height="2.56" fill="black"/>
<rect x="35.84" y="38.4" width="2.56" height="2.56" fill="black"/>
<rect x="35.84" y="35.84" width="2.56" height="2.56" fill="black"/>
<rect x="40.96" y="38.4" width="2.56" height="2.56" fill="black"/>
<rect x="38.4" y="38.4" width="2.56" height="2.56" fill="black"/>
<rect x="38.4" y="28.16" width="2.56" height="2.56" fill="black"/>
<rect x="35.84" y="30.72" width="2.56" height="2.56" fill="black"/>
<rect x="33.28" y="33.28" width="2.56" height="2.56" fill="black"/>
<rect x="30.72" y="33.28" width="2.56" height="2.56" fill="black"/>
<rect x="28.16" y="33.28" width="2.56" height="2.56" fill="black"/>
<rect x="25.6" y="33.28" width="2.56" height="2.56" fill="black"/>
<rect x="23.04" y="33.28" width="2.56" height="2.56" fill="black"/>
<rect x="20.48" y="30.72" width="2.56" height="2.56" fill="black"/>
<rect x="17.92" y="28.16" width="2.56" height="2.56" fill="black"/>
<rect x="15.36" y="28.16" width="2.56" height="2.56" fill="black"/>
<rect x="15.36" y="25.6" width="2.56" height="2.56" fill="black"/>
<rect x="12.8" y="28.16" width="2.56" height="2.56" fill="black"/>
<rect x="10.24" y="28.16" width="2.56" height="2.56" fill="black"/>
<rect x="10.24" y="38.4" width="2.56" height="2.56" fill="black"/>
<rect x="5.12" y="33.28" width="2.56" height="2.56" fill="black"/>
<rect x="7.68005" y="30.72" width="2.56" height="2.56" fill="black"/>
<rect x="28.16" y="20.48" width="2.56" height="2.56" fill="white"/>
<rect x="28.16" y="17.92" width="2.56" height="2.56" fill="#8000FF"/>
<rect x="25.6" y="17.92" width="2.56" height="2.56" fill="#FEBE8E"/>
<rect x="30.72" y="20.48" width="2.56" height="2.56" fill="white"/>
<rect x="30.72" y="23.04" width="2.56" height="2.56" fill="white"/>
<rect x="28.16" y="23.04" width="2.56" height="2.56" fill="white"/>
<rect x="35.84" width="2.56" height="2.56" fill="black"/>
<rect x="38.4" y="2.56" width="2.56" height="2.56" fill="black"/>
<rect x="40.96" y="5.12" width="2.56" height="2.56" fill="black"/>
<rect x="51.2" y="58.88" width="2.56" height="2.56" fill="black"/>
<rect x="23.04" width="2.56" height="2.56" fill="black"/>
<rect x="25.6" width="2.56" height="2.56" fill="black"/>
<rect x="28.16" width="2.56" height="2.56" fill="black"/>
</svg>
