<?xml version="1.0" encoding="UTF-8"?>
<svg id="Layer_1" data-name="Layer 1" xmlns="http://www.w3.org/2000/svg" viewBox="0 0 293 287">
  <defs>
    <style>
      .cls-1 {
        fill: #fff;
      }
    </style>
  </defs>
  <path class="cls-1" d="M271.99,189.74c-31.3-4.42-77.03-6.87-123-7.11-47.31-.24-94.88,1.87-127.22,6.63-8.43,1.24-15.84,2.66-21.93,4.26v85.02c7.46,2.14,14.85,3.75,22.08,4.92,41.06,6.65,83.36,0,120.06-18.2l7.01-3.47,5.2,2.63c43.22,21.9,89.04,27.48,136.42,14.77,.79-.21,1.59-.43,2.39-.66v-85.02c-5.89-1.39-12.97-2.65-21.01-3.78Zm-192.43,62.29c-26.48,0-47.95-9.75-47.95-21.78,0-3.01,1.05-5.87,2.62-8.48,5.56-9.21,17.13-13.83,28.38-11.84,27.61,4.88,64.92,20.31,64.92,20.31,0,12.03-21.47,21.78-47.95,21.78Zm136.25,0c-26.48,0-47.95-9.75-47.95-21.78,0,0,37.31-15.43,64.91-20.31,11.25-1.99,22.82,2.63,28.38,11.84,1.57,2.61,2.62,5.47,2.62,8.48,0,12.03-21.47,21.78-47.95,21.78Z"/>
  <path class="cls-1" d="M289.55,103.22c-6.5,11.32-17.4,10.62-17.4,10.62C304.5,56.88,254.29,10.81,248.02,1.24c-26.19,42.61-62.14,35.35-78.51,33.36-1.72-.21-3.42-.4-5.11-.56-36.61-3.58-71.13,.4-99.02,12.59-25.87,11.3-46.03,29.65-56.81,55.65,12.69-6.57,23.04-4.41,23.04-4.41-.17,.06-1.81,.83-4.26,2.28C10.25,110.22-.15,128.67-.15,148.51v32.25c6.09-1.74,13.49-3.29,21.93-4.64,1.86-8.24,5.3-26.26,11.36-34.99,5.49-7.87,13.09-15.22,23.63-19.66,12.02-5.07,27.87-6.29,48.69,0,12.27,3.7,26.27,9.99,42.23,19.66,.06,.02,.11,.06,.17,.1,.06-.04,.11-.08,.17-.1,15.98-9.67,29.92-15.96,42.13-19.66,20.68-6.29,36.3-5.07,48.1,0,10.3,4.43,17.68,11.79,22.92,19.66,5.94,8.91,9.15,29.51,10.82,37.79,8.03,1.23,15.11,2.61,21.01,4.12v-38.98c0-14.97-1.16-28.16-3.45-40.85Z"/>
</svg>